<svg width="51" height="50" viewBox="0 0 51 50" fill="none" xmlns="http://www.w3.org/2000/svg">
<path fill-rule="evenodd" clip-rule="evenodd" d="M48.9578 42.2241H47.1126V38.688C47.1126 38.0448 46.602 37.5234 45.9722 37.5234H43.6087V15.8194H48.9786C49.4504 15.8123 49.858 15.4806 49.9702 15.0124C50.0824 14.5443 49.8708 14.0578 49.4554 13.829L25.9854 1.12422C25.6808 0.958592 25.3155 0.958592 25.0109 1.12422L1.56167 13.8502C1.1672 14.088 0.972311 14.562 1.08228 15.0161C1.19225 15.4702 1.58101 15.7968 2.03853 15.8194H7.40844V37.5234H5.02412C4.39433 37.5234 3.88379 38.0448 3.88379 38.688V42.2241H2.03853C1.75247 42.2236 1.47891 42.3438 1.2826 42.5563C1.0863 42.7688 0.984705 43.0548 1.00187 43.3464V47.9413C1.00187 48.526 1.466 49 2.03853 49H48.9578C49.5304 49 49.9945 48.526 49.9945 47.9413V43.3464C50.0117 43.0548 49.9101 42.7688 49.7138 42.5563C49.5174 42.3438 49.2439 42.2236 48.9578 42.2241ZM41.5146 37.5445H39.8767V15.8194H41.5146V37.5445ZM17.2982 37.5234V15.8194H13.1515V37.5234H17.2982ZM19.3715 15.8194H21.0094V37.5234H19.3715V15.8194ZM27.9551 15.8194H23.0828V37.5234H27.9551V15.8194ZM30.0284 15.8194H31.6663V37.5234H30.0284V15.8194ZM37.8863 15.8194H33.7396V37.5234H37.8863V15.8194ZM25.4463 3.24168L44.8112 13.7019H6.20591L25.4463 3.24168ZM11.1197 15.8194H9.48176V37.5234H11.1197V15.8194ZM6.16444 39.8526H44.8319V42.1183H6.16444V39.8526ZM3.07519 46.819H47.9212V44.3416H46.4284C46.2779 44.373 46.1227 44.373 45.9722 44.3416H5.02412C4.87362 44.373 4.71848 44.373 4.56798 44.3416H3.07519V46.819Z" fill="white"/>
<path d="M47.1126 42.2241H46.6126V42.7241H47.1126V42.2241ZM48.9578 42.2241V42.7241H48.9587L48.9578 42.2241ZM43.6087 37.5234H43.1087V38.0234H43.6087V37.5234ZM43.6087 15.8194V15.3194H43.1087V15.8194H43.6087ZM48.9786 15.8194V16.3195L48.9861 16.3193L48.9786 15.8194ZM49.4554 13.829L49.6967 13.391L49.6934 13.3893L49.4554 13.829ZM25.9854 1.12422L25.7465 1.56348L25.7474 1.56393L25.9854 1.12422ZM25.0109 1.12422L25.2494 1.56368L25.2498 1.56348L25.0109 1.12422ZM1.56167 13.8502L1.32317 13.4107L1.31322 13.4161L1.30353 13.422L1.56167 13.8502ZM1.08228 15.0161L1.56824 14.8984L1.08228 15.0161ZM2.03853 15.8194L2.01386 16.3188L2.02619 16.3194H2.03853V15.8194ZM7.40844 15.8194H7.90844V15.3194H7.40844V15.8194ZM7.40844 37.5234V38.0234H7.90844V37.5234H7.40844ZM3.88379 42.2241V42.7241H4.38379V42.2241H3.88379ZM2.03853 42.2241L2.03761 42.7241H2.03853V42.2241ZM1.2826 42.5563L0.915322 42.2171H0.915322L1.2826 42.5563ZM1.00187 43.3464H1.50187V43.3317L1.50101 43.317L1.00187 43.3464ZM49.9945 43.3464L49.4953 43.317L49.4945 43.3317V43.3464H49.9945ZM39.8767 37.5445H39.3767V38.0445H39.8767V37.5445ZM41.5146 37.5445V38.0445H42.0146V37.5445H41.5146ZM39.8767 15.8194V15.3194H39.3767V15.8194H39.8767ZM41.5146 15.8194H42.0146V15.3194H41.5146V15.8194ZM17.2982 15.8194H17.7982V15.3194H17.2982V15.8194ZM17.2982 37.5234V38.0234H17.7982V37.5234H17.2982ZM13.1515 15.8194V15.3194H12.6515V15.8194H13.1515ZM13.1515 37.5234H12.6515V38.0234H13.1515V37.5234ZM21.0094 15.8194H21.5094V15.3194H21.0094V15.8194ZM19.3715 15.8194V15.3194H18.8715V15.8194H19.3715ZM21.0094 37.5234V38.0234H21.5094V37.5234H21.0094ZM19.3715 37.5234H18.8715V38.0234H19.3715V37.5234ZM23.0828 15.8194V15.3194H22.5828V15.8194H23.0828ZM27.9551 15.8194H28.4551V15.3194H27.9551V15.8194ZM23.0828 37.5234H22.5828V38.0234H23.0828V37.5234ZM27.9551 37.5234V38.0234H28.4551V37.5234H27.9551ZM31.6663 15.8194H32.1663V15.3194H31.6663V15.8194ZM30.0284 15.8194V15.3194H29.5284V15.8194H30.0284ZM31.6663 37.5234V38.0234H32.1663V37.5234H31.6663ZM30.0284 37.5234H29.5284V38.0234H30.0284V37.5234ZM33.7396 15.8194V15.3194H33.2396V15.8194H33.7396ZM37.8863 15.8194H38.3863V15.3194H37.8863V15.8194ZM33.7396 37.5234H33.2396V38.0234H33.7396V37.5234ZM37.8863 37.5234V38.0234H38.3863V37.5234H37.8863ZM44.8112 13.7019V14.2019L45.0488 13.262L44.8112 13.7019ZM25.4463 3.24168L25.684 2.80176L25.4456 2.67299L25.2075 2.80241L25.4463 3.24168ZM6.20591 13.7019L5.96709 13.2627L6.20591 14.2019V13.7019ZM9.48176 15.8194V15.3194H8.98176V15.8194H9.48176ZM11.1197 15.8194H11.6197V15.3194H11.1197V15.8194ZM9.48176 37.5234H8.98176V38.0234H9.48176V37.5234ZM11.1197 37.5234V38.0234H11.6197V37.5234H11.1197ZM44.8319 39.8526H45.3319V39.3526H44.8319V39.8526ZM6.16444 39.8526V39.3526H5.66444V39.8526H6.16444ZM44.8319 42.1183V42.6183H45.3319V42.1183H44.8319ZM6.16444 42.1183H5.66444V42.6183H6.16444V42.1183ZM47.9212 46.819V47.319H48.4212V46.819H47.9212ZM3.07519 46.819H2.57519V47.319H3.07519V46.819ZM47.9212 44.3416H48.4212V43.8416H47.9212V44.3416ZM46.4284 44.3416V43.8416H46.3768L46.3263 43.8521L46.4284 44.3416ZM45.9722 44.3416L46.0743 43.8521L46.0238 43.8416H45.9722V44.3416ZM5.02412 44.3416V43.8416H4.97255L4.92208 43.8521L5.02412 44.3416ZM4.56798 44.3416L4.67002 43.8521L4.61955 43.8416H4.56798V44.3416ZM3.07519 44.3416V43.8416H2.57519V44.3416H3.07519ZM47.1126 42.7241H48.9578V41.7241H47.1126V42.7241ZM46.6126 38.688V42.2241H47.6126V38.688H46.6126ZM45.9722 38.0234C46.316 38.0234 46.6126 38.3109 46.6126 38.688H47.6126C47.6126 37.7786 46.888 37.0234 45.9722 37.0234V38.0234ZM43.6087 38.0234H45.9722V37.0234H43.6087V38.0234ZM43.1087 15.8194V37.5234H44.1087V15.8194H43.1087ZM48.9786 15.3194H43.6087V16.3194H48.9786V15.3194ZM49.484 14.8959C49.4235 15.1483 49.208 15.3159 48.971 15.3195L48.9861 16.3193C49.6929 16.3087 50.2926 15.8129 50.4564 15.1289L49.484 14.8959ZM49.2141 14.2669C49.4282 14.3848 49.5448 14.6419 49.484 14.8959L50.4564 15.1289C50.6199 14.4466 50.3134 13.7308 49.6967 13.3911L49.2141 14.2669ZM25.7474 1.56393L49.2174 14.2687L49.6934 13.3893L26.2234 0.684515L25.7474 1.56393ZM25.2498 1.56348C25.4054 1.47884 25.5909 1.47884 25.7465 1.56348L26.2243 0.684974C25.7708 0.438342 25.2256 0.438342 24.7721 0.684974L25.2498 1.56348ZM1.80016 14.2896L25.2494 1.56368L24.7725 0.684769L1.32317 13.4107L1.80016 14.2896ZM1.56824 14.8984C1.50862 14.6522 1.61603 14.4012 1.81981 14.2784L1.30353 13.422C0.718381 13.7747 0.436002 14.4717 0.596326 15.1338L1.56824 14.8984ZM2.0632 15.32C1.83318 15.3086 1.6275 15.1431 1.56824 14.8984L0.596326 15.1338C0.757 15.7973 1.32884 16.2849 2.01386 16.3188L2.0632 15.32ZM7.40844 15.3194H2.03853V16.3194H7.40844V15.3194ZM7.90844 37.5234V15.8194H6.90844V37.5234H7.90844ZM5.02412 38.0234H7.40844V37.0234H5.02412V38.0234ZM4.38379 38.688C4.38379 38.3109 4.68035 38.0234 5.02412 38.0234V37.0234C4.10831 37.0234 3.38379 37.7786 3.38379 38.688H4.38379ZM4.38379 42.2241V38.688H3.38379V42.2241H4.38379ZM2.03853 42.7241H3.88379V41.7241H2.03853V42.7241ZM1.64988 42.8956C1.75254 42.7845 1.89315 42.7239 2.03761 42.7241L2.03945 41.7241C1.61179 41.7233 1.20527 41.9032 0.915322 42.2171L1.64988 42.8956ZM1.50101 43.317C1.49174 43.1596 1.54683 43.0072 1.64988 42.8956L0.915322 42.2171C0.625765 42.5305 0.477671 42.9499 0.502734 43.3758L1.50101 43.317ZM1.50187 47.9413V43.3464H0.50187V47.9413H1.50187ZM2.03853 48.5C1.75202 48.5 1.50187 48.2598 1.50187 47.9413H0.50187C0.50187 48.7921 1.17998 49.5 2.03853 49.5V48.5ZM48.9578 48.5H2.03853V49.5H48.9578V48.5ZM49.4945 47.9413C49.4945 48.2598 49.2443 48.5 48.9578 48.5V49.5C49.8164 49.5 50.4945 48.7922 50.4945 47.9413H49.4945ZM49.4945 43.3464V47.9413H50.4945V43.3464H49.4945ZM49.3465 42.8956C49.4495 43.0072 49.5046 43.1596 49.4953 43.317L50.4936 43.3758C50.5187 42.9499 50.3706 42.5305 50.081 42.2171L49.3465 42.8956ZM48.9587 42.7241C49.1032 42.7239 49.2438 42.7845 49.3465 42.8956L50.081 42.2171C49.7911 41.9032 49.3846 41.7233 48.9569 41.7241L48.9587 42.7241ZM39.8767 38.0445H41.5146V37.0445H39.8767V38.0445ZM39.3767 15.8194V37.5445H40.3767V15.8194H39.3767ZM41.5146 15.3194H39.8767V16.3194H41.5146V15.3194ZM42.0146 37.5445V15.8194H41.0146V37.5445H42.0146ZM16.7982 15.8194V37.5234H17.7982V15.8194H16.7982ZM13.1515 16.3194H17.2982V15.3194H13.1515V16.3194ZM13.6515 37.5234V15.8194H12.6515V37.5234H13.6515ZM17.2982 37.0234H13.1515V38.0234H17.2982V37.0234ZM21.0094 15.3194H19.3715V16.3194H21.0094V15.3194ZM21.5094 37.5234V15.8194H20.5094V37.5234H21.5094ZM19.3715 38.0234H21.0094V37.0234H19.3715V38.0234ZM18.8715 15.8194V37.5234H19.8715V15.8194H18.8715ZM23.0828 16.3194H27.9551V15.3194H23.0828V16.3194ZM23.5828 37.5234V15.8194H22.5828V37.5234H23.5828ZM27.9551 37.0234H23.0828V38.0234H27.9551V37.0234ZM27.4551 15.8194V37.5234H28.4551V15.8194H27.4551ZM31.6663 15.3194H30.0284V16.3194H31.6663V15.3194ZM32.1663 37.5234V15.8194H31.1663V37.5234H32.1663ZM30.0284 38.0234H31.6663V37.0234H30.0284V38.0234ZM29.5284 15.8194V37.5234H30.5284V15.8194H29.5284ZM33.7396 16.3194H37.8863V15.3194H33.7396V16.3194ZM34.2396 37.5234V15.8194H33.2396V37.5234H34.2396ZM37.8863 37.0234H33.7396V38.0234H37.8863V37.0234ZM37.3863 15.8194V37.5234H38.3863V15.8194H37.3863ZM45.0488 13.262L25.684 2.80176L25.2087 3.68161L44.5735 14.1419L45.0488 13.262ZM6.20591 14.2019H44.8112V13.2019H6.20591V14.2019ZM25.2075 2.80241L5.96709 13.2627L6.44473 14.1412L25.6852 3.68096L25.2075 2.80241ZM9.48176 16.3194H11.1197V15.3194H9.48176V16.3194ZM9.98176 37.5234V15.8194H8.98176V37.5234H9.98176ZM11.1197 37.0234H9.48176V38.0234H11.1197V37.0234ZM10.6197 15.8194V37.5234H11.6197V15.8194H10.6197ZM44.8319 39.3526H6.16444V40.3526H44.8319V39.3526ZM45.3319 42.1183V39.8526H44.3319V42.1183H45.3319ZM6.16444 42.6183H44.8319V41.6183H6.16444V42.6183ZM5.66444 39.8526V42.1183H6.66444V39.8526H5.66444ZM47.9212 46.319H3.07519V47.319H47.9212V46.319ZM47.4212 44.3416V46.819H48.4212V44.3416H47.4212ZM46.4284 44.8416H47.9212V43.8416H46.4284V44.8416ZM45.8702 44.8311C46.088 44.8765 46.3126 44.8765 46.5304 44.8311L46.3263 43.8521C46.2431 43.8694 46.1575 43.8695 46.0743 43.8521L45.8702 44.8311ZM5.02412 44.8416H45.9722V43.8416H5.02412V44.8416ZM4.46595 44.8311C4.68374 44.8765 4.90836 44.8765 5.12615 44.8311L4.92208 43.8521C4.83889 43.8695 4.75321 43.8695 4.67002 43.8521L4.46595 44.8311ZM3.07519 44.8416H4.56798V43.8416H3.07519V44.8416ZM3.57519 46.819V44.3416H2.57519V46.819H3.57519Z" fill="#C4C4C9"/>
</svg>
