<svg width="55" height="50" viewBox="0 0 55 50" fill="none" xmlns="http://www.w3.org/2000/svg">
<path d="M29.2741 44.1019V6.87744" stroke="#C4C4C9" stroke-width="2" stroke-linejoin="round"/>
<path d="M50.5644 6.87744V44.1019" stroke="#C4C4C9" stroke-width="2" stroke-linejoin="round"/>
<path fill-rule="evenodd" clip-rule="evenodd" d="M52.3387 6.87755H27.5L31.0484 1H48.7903L52.3387 6.87755V6.87755Z" stroke="#C4C4C9" stroke-width="2" stroke-linejoin="round"/>
<path d="M27.5 48.0204V44.1021H52.3387V48.0204" stroke="#C4C4C9" stroke-width="2" stroke-linejoin="round"/>
<rect x="32.8225" y="32.3469" width="14.1935" height="7.83673" stroke="#C4C4C9" stroke-width="2" stroke-linejoin="round"/>
<path d="M35.4839 36.2652H44.3549" stroke="#C4C4C9" stroke-width="2" stroke-linejoin="round"/>
<rect x="32.8225" y="10.7959" width="14.1935" height="17.6327" stroke="#C4C4C9" stroke-width="2" stroke-linejoin="round"/>
<path d="M36.3708 28.4286V23.5307C36.3708 21.3666 37.9595 19.6123 39.9192 19.6123V19.6123C41.879 19.6123 43.4676 21.3666 43.4676 23.5307V28.4286" stroke="#C4C4C9" stroke-width="2" stroke-linejoin="round"/>
<path d="M2.66138 48.0203V36.2652C2.66138 34.6422 3.85288 33.3264 5.32267 33.3264V33.3264C6.79246 33.3264 7.98396 34.6422 7.98396 36.2652V48.0203" stroke="#C4C4C9" stroke-width="2" stroke-linejoin="round"/>
<path d="M2.66138 42.1429H7.98396" stroke="#C4C4C9" stroke-width="2" stroke-linejoin="round"/>
<path d="M0 48.0203H55" stroke="#C4C4C9" stroke-width="2" stroke-linejoin="round"/>
<path d="M29.2743 29.4081H5.32267C3.85288 29.4081 2.66138 28.0923 2.66138 26.4693H2.66138C2.66138 24.8463 3.85288 23.5305 5.32267 23.5305H29.2743" stroke="#C4C4C9" stroke-width="2" stroke-linejoin="round"/>
<path d="M5.32251 29.4081L10.6451 23.5305" stroke="#C4C4C9" stroke-width="2" stroke-linejoin="round"/>
<path d="M10.6453 29.4081L15.9678 23.5305" stroke="#C4C4C9" stroke-width="2" stroke-linejoin="round"/>
<path d="M15.9678 29.4081L21.2904 23.5305" stroke="#C4C4C9" stroke-width="2" stroke-linejoin="round"/>
<path d="M21.2903 29.4081L26.6129 23.5305" stroke="#C4C4C9" stroke-width="2" stroke-linejoin="round"/>
</svg>
