<svg width="50" height="50" viewBox="0 0 50 50" fill="none" xmlns="http://www.w3.org/2000/svg">
<path fill-rule="evenodd" clip-rule="evenodd" d="M6.90894 25.0214C6.90894 34.9965 15.0245 43.112 24.9996 43.112C34.9747 43.112 43.0903 34.9965 43.0903 25.0214C43.0903 15.0463 34.9747 6.93115 24.9996 6.93115C15.0245 6.93115 6.90894 15.0463 6.90894 25.0214ZM8.68671 25.0214C8.68671 16.0267 16.0049 8.70893 24.9996 8.70893C33.9943 8.70893 41.3125 16.0267 41.3125 25.0214C41.3125 34.0165 33.9943 41.3343 24.9996 41.3343C16.0049 41.3343 8.68671 34.0165 8.68671 25.0214Z" fill="#C4C4C9"/>
<path d="M24.9996 42.612C15.3006 42.612 7.40894 34.7203 7.40894 25.0214H6.40894C6.40894 35.2726 14.7483 43.612 24.9996 43.612V42.612ZM42.5903 25.0214C42.5903 34.7203 34.6986 42.612 24.9996 42.612V43.612C35.2509 43.612 43.5903 35.2726 43.5903 25.0214H42.5903ZM24.9996 7.43115C34.6986 7.43115 42.5903 15.3224 42.5903 25.0214H43.5903C43.5903 14.7701 35.2508 6.43115 24.9996 6.43115V7.43115ZM7.40894 25.0214C7.40894 15.3224 15.3006 7.43115 24.9996 7.43115V6.43115C14.7484 6.43115 6.40894 14.7701 6.40894 25.0214H7.40894ZM24.9996 8.20893C15.7288 8.20893 8.18671 15.7505 8.18671 25.0214H9.18671C9.18671 16.3029 16.2811 9.20893 24.9996 9.20893V8.20893ZM41.8125 25.0214C41.8125 15.7505 34.2704 8.20893 24.9996 8.20893V9.20893C33.7181 9.20893 40.8125 16.3029 40.8125 25.0214H41.8125ZM24.9996 41.8343C34.2704 41.8343 41.8125 34.2926 41.8125 25.0214H40.8125C40.8125 33.7403 33.7181 40.8343 24.9996 40.8343V41.8343ZM8.18671 25.0214C8.18671 34.2926 15.7288 41.8343 24.9996 41.8343V40.8343C16.2811 40.8343 9.18671 33.7403 9.18671 25.0214H8.18671Z" fill="#C4C4C9"/>
<path fill-rule="evenodd" clip-rule="evenodd" d="M16.1484 25.0215C16.1484 29.9019 20.1191 33.8721 24.9995 33.8721C29.88 33.8721 33.8511 29.9024 33.8511 25.0215C33.8511 20.1406 29.88 16.1699 24.9995 16.1699C20.1191 16.1699 16.1484 20.141 16.1484 25.0215ZM17.9262 25.0215C17.9262 21.121 21.0995 17.9477 24.9995 17.9477C28.9 17.9477 32.0733 21.121 32.0733 25.0215C32.0733 28.921 28.9 32.0944 24.9995 32.0944C21.0995 32.0944 17.9262 28.921 17.9262 25.0215Z" fill="#C4C4C9"/>
<path d="M24.9995 33.3721C20.3952 33.3721 16.6484 29.6257 16.6484 25.0215H15.6484C15.6484 30.1781 19.843 34.3721 24.9995 34.3721V33.3721ZM33.3511 25.0215C33.3511 29.6261 29.6039 33.3721 24.9995 33.3721V34.3721C30.1561 34.3721 34.3511 30.1786 34.3511 25.0215H33.3511ZM24.9995 16.6699C29.6039 16.6699 33.3511 20.4167 33.3511 25.0215H34.3511C34.3511 19.8644 30.1561 15.6699 24.9995 15.6699V16.6699ZM16.6484 25.0215C16.6484 20.4171 20.3953 16.6699 24.9995 16.6699V15.6699C19.8429 15.6699 15.6484 19.8649 15.6484 25.0215H16.6484ZM24.9995 17.4477C20.8234 17.4477 17.4262 20.8449 17.4262 25.0215H18.4262C18.4262 21.3972 21.3757 18.4477 24.9995 18.4477V17.4477ZM32.5733 25.0215C32.5733 20.8449 29.1761 17.4477 24.9995 17.4477V18.4477C28.6239 18.4477 31.5733 21.3972 31.5733 25.0215H32.5733ZM24.9995 32.5944C29.1761 32.5944 32.5733 29.1972 32.5733 25.0215H31.5733C31.5733 28.6448 28.6239 31.5944 24.9995 31.5944V32.5944ZM17.4262 25.0215C17.4262 29.1972 20.8234 32.5944 24.9995 32.5944V31.5944C21.3757 31.5944 18.4262 28.6449 18.4262 25.0215H17.4262Z" fill="#C4C4C9"/>
<path d="M24.9995 8.70898C24.5088 8.70898 24.1106 8.31076 24.1106 7.82009V2.28098C24.1106 1.79031 24.5088 1.39209 24.9995 1.39209C25.4902 1.39209 25.8884 1.79031 25.8884 2.28098V7.81965C25.8884 8.31076 25.4906 8.70898 24.9995 8.70898Z" fill="#C4C4C9" stroke="#C4C4C9"/>
<path d="M24.9995 48.6205C24.5088 48.6205 24.1106 48.2222 24.1106 47.7316V42.2231C24.1106 41.7325 24.5088 41.3342 24.9995 41.3342C25.4902 41.3342 25.8884 41.7325 25.8884 42.2231V47.7316C25.8884 48.2222 25.4906 48.6205 24.9995 48.6205Z" fill="#C4C4C9" stroke="#C4C4C9"/>
<path d="M7.79774 25.9103H2.27463C1.78396 25.9103 1.38574 25.5121 1.38574 25.0215C1.38574 24.5303 1.78396 24.1326 2.27463 24.1326H7.79774C8.28841 24.1326 8.68663 24.5303 8.68663 25.0215C8.68663 25.5121 8.28841 25.9103 7.79774 25.9103Z" fill="#C4C4C9" stroke="#C4C4C9"/>
<path d="M47.7254 25.9103H42.2014C41.7107 25.9103 41.3125 25.5121 41.3125 25.0215C41.3125 24.5303 41.7107 24.1326 42.2014 24.1326H47.7254C48.2161 24.1326 48.6143 24.5303 48.6143 25.0215C48.6143 25.5121 48.2161 25.9103 47.7254 25.9103Z" fill="#C4C4C9" stroke="#C4C4C9"/>
</svg>
