<svg width="50" height="50" viewBox="0 0 50 50" fill="none" xmlns="http://www.w3.org/2000/svg">
<path fill-rule="evenodd" clip-rule="evenodd" d="M31.2218 20.8575C31.2232 20.86 31.2246 20.8625 31.2251 20.8653L33.9261 36.2542C33.9725 36.5173 33.8644 36.7837 33.6481 36.9406C33.5267 37.0286 33.3827 37.0736 33.2381 37.0736C33.1255 37.0736 33.0126 37.0467 32.9096 36.9914L19.1206 29.6444C19.0257 29.5939 18.9452 29.5229 18.8836 29.4381L18.8835 29.438C18.8223 29.3538 18.7866 29.2602 18.7676 29.1642C18.7671 29.1615 18.7657 29.1591 18.7644 29.1567C18.7629 29.1542 18.7615 29.1516 18.761 29.1487L16.0599 13.7598C16.0135 13.4968 16.1217 13.2304 16.3379 13.0735C16.5535 12.9166 16.8404 12.8958 17.0765 13.0226L30.8655 20.3697C30.8679 20.371 30.8697 20.3729 30.8716 20.3749C30.8733 20.3768 30.875 20.3787 30.8773 20.3799C30.9629 20.4279 31.0411 20.491 31.1026 20.5757C31.1639 20.6602 31.1996 20.7539 31.2186 20.85C31.2191 20.8527 31.2205 20.8551 31.2218 20.8575ZM29.2215 21.0769L17.6837 14.9293L19.9438 27.8061L20.8142 27.1748C19.7572 25.1399 20.3144 22.5776 22.2259 21.1915C23.2452 20.4525 24.4914 20.1551 25.7342 20.3523C26.744 20.5129 27.6501 20.9897 28.3522 21.7074L29.2215 21.0769ZM26.7327 23.7455V23.7452C26.3956 23.2806 25.8976 22.9749 25.3309 22.8849C25.0033 22.8328 24.6781 22.8645 24.3702 22.9584L23.6602 21.9794C24.0786 21.7943 24.5263 21.6902 24.9857 21.6902C25.1611 21.6902 25.3377 21.7042 25.5145 21.7322C26.3891 21.8713 27.1574 22.3431 27.6773 23.0598C28.1975 23.7769 28.407 24.6536 28.2678 25.5283C28.166 26.1678 27.8829 26.7477 27.4599 27.2179L26.7459 26.2337C27.2554 25.5037 27.2838 24.5055 26.7327 23.7455ZM24.6551 27.1289C24.0882 27.0385 23.5905 26.7329 23.2538 26.2682C22.9167 25.8039 22.7806 25.2359 22.871 24.669C22.923 24.3418 23.0543 24.0424 23.2393 23.7788L22.5263 22.7957C22.1032 23.266 21.8201 23.8459 21.7183 24.4855C21.5791 25.3601 21.7886 26.2368 22.3088 26.9539C22.8287 27.6706 23.5969 28.1424 24.4716 28.2816C25.112 28.3831 25.7506 28.2946 26.3286 28.0386L25.6194 27.0608C25.4184 27.1223 25.2097 27.1562 24.9977 27.1562C24.884 27.1562 24.7698 27.1473 24.6551 27.1289ZM24.2509 24.8887C24.2823 24.6905 24.3894 24.5165 24.5521 24.3985C24.6818 24.3047 24.8346 24.2552 24.9915 24.2552C25.0314 24.2552 25.0713 24.2582 25.1112 24.2647C25.3094 24.2965 25.4834 24.4032 25.6015 24.5656C25.8446 24.9009 25.7697 25.3718 25.4346 25.615L25.4341 25.6151L25.4338 25.6155C25.2714 25.7333 25.0742 25.781 24.8748 25.749C24.677 25.7176 24.5027 25.6105 24.3846 25.4478C24.2669 25.2854 24.2195 25.0869 24.2509 24.8887ZM21.634 28.3064L20.7644 28.9372L32.3024 35.0848L30.0419 22.2081L29.172 22.8392C30.2286 24.8735 29.6717 27.4349 27.7615 28.8212C27.7613 28.8214 27.7612 28.8215 27.761 28.8217C27.7609 28.8219 27.7607 28.8221 27.7605 28.8223C27.7602 28.8225 27.7598 28.8226 27.7595 28.8228C27.7592 28.8229 27.7588 28.8231 27.7585 28.8233C26.9456 29.4124 25.9883 29.7212 25.0031 29.7212C24.7537 29.7212 24.503 29.7014 24.2519 29.6615C23.2421 29.5008 22.3362 29.0241 21.634 28.3064Z" fill="#C4C4C9"/>
<path fill-rule="evenodd" clip-rule="evenodd" d="M9.90895 35.9474C3.87667 27.6306 5.73553 15.9559 14.0524 9.92298C22.3702 3.89037 34.0442 5.74957 40.0772 14.0668C46.1098 22.3839 44.251 34.0586 35.9334 40.0912C32.636 42.4832 28.8102 43.6342 25.0178 43.6342C19.2455 43.6342 13.5499 40.9672 9.90895 35.9474ZM11.0402 35.1273C16.6201 42.8203 27.4184 44.5396 35.1133 38.96C42.8069 33.3797 44.5262 22.5808 38.946 14.8868C35.5786 10.2443 30.3095 7.77655 24.9704 7.77655C21.4618 7.77655 17.9239 8.84126 14.8728 11.0542C7.17953 16.6348 5.4602 27.4338 11.0402 35.1273Z" fill="#C4C4C9"/>
<path d="M14.0524 9.92298L13.7588 9.51823L13.7588 9.51825L14.0524 9.92298ZM9.90895 35.9474L9.5042 36.241L9.5042 36.241L9.90895 35.9474ZM40.0772 14.0668L40.4819 13.7732L40.4819 13.7732L40.0772 14.0668ZM35.9334 40.0912L35.6398 39.6864L35.6398 39.6865L35.9334 40.0912ZM35.1133 38.96L35.4068 39.3648L35.4069 39.3648L35.1133 38.96ZM11.0402 35.1273L10.6354 35.4209L10.6354 35.4209L11.0402 35.1273ZM38.946 14.8868L39.3507 14.5933L39.3507 14.5933L38.946 14.8868ZM14.8728 11.0542L14.5792 10.6494L14.5792 10.6495L14.8728 11.0542ZM13.7588 9.51825C5.21845 15.7133 3.30978 27.7006 9.5042 36.241L10.3137 35.6539C4.44355 27.5606 6.25261 16.1986 14.346 10.3277L13.7588 9.51825ZM40.4819 13.7732C34.2868 5.23249 22.3002 3.32349 13.7588 9.51823L14.3459 10.3277C22.4403 4.45726 33.8016 6.26665 39.6724 14.3603L40.4819 13.7732ZM36.227 40.4959C44.768 34.3012 46.6767 22.3139 40.4819 13.7732L39.6724 14.3603C45.5429 22.454 43.7339 33.816 35.6398 39.6864L36.227 40.4959ZM25.0178 44.1342C28.9117 44.1342 32.8411 42.9521 36.227 40.4959L35.6398 39.6865C32.4309 42.0143 28.7086 43.1342 25.0178 43.1342V44.1342ZM9.5042 36.241C13.2435 41.3964 19.0927 44.1342 25.0178 44.1342V43.1342C19.3982 43.1342 13.8563 40.5381 10.3137 35.6539L9.5042 36.241ZM34.8198 38.5552C27.3483 43.9728 16.8627 42.3031 11.4449 34.8338L10.6354 35.4209C16.3775 43.3374 27.4884 45.1064 35.4068 39.3648L34.8198 38.5552ZM38.5412 15.1804C43.9594 22.6508 42.2898 33.1371 34.8197 38.5553L35.4069 39.3648C43.324 33.6223 45.0931 22.5107 39.3507 14.5933L38.5412 15.1804ZM24.9704 8.27655C30.1567 8.27655 35.2722 10.6735 38.5412 15.1804L39.3507 14.5933C35.885 9.81518 30.4622 7.27655 24.9704 7.27655V8.27655ZM15.1664 11.4589C18.1291 9.31014 21.5634 8.27655 24.9704 8.27655V7.27655C21.3602 7.27655 17.7188 8.37237 14.5792 10.6494L15.1664 11.4589ZM11.4449 34.8338C6.02708 27.3637 7.69662 16.8774 15.1664 11.4589L14.5792 10.6495C6.66243 16.3922 4.89333 27.5038 10.6354 35.4209L11.4449 34.8338Z" fill="#C4C4C9"/>
<path fill-rule="evenodd" clip-rule="evenodd" d="M28.7511 1.40478C35.0553 2.40875 40.5916 5.80748 44.3396 10.9753C48.0876 16.1428 49.5989 22.4606 48.5953 28.7648C47.5913 35.0693 44.1926 40.6052 39.0251 44.3532C34.7957 47.4207 29.8885 48.8978 25.0242 48.8978C17.6206 48.8978 10.3162 45.4769 5.64644 39.0391C-2.0905 28.3714 0.293688 13.398 10.9613 5.66043C16.1288 1.91239 22.447 0.402188 28.7511 1.40478ZM38.205 43.222C43.0702 39.6933 46.2701 34.4811 47.2154 28.5451C48.1603 22.6093 46.7374 16.661 43.2084 11.7954C39.6797 6.93014 34.4672 3.72993 28.5311 2.78466C27.3334 2.59398 26.135 2.49983 24.9451 2.49983C20.2385 2.49983 15.6652 3.97489 11.7814 6.79161C1.73772 14.0765 -0.507279 28.175 6.77764 38.219C10.3067 43.0842 15.5192 46.2841 21.4549 47.229C27.3907 48.1753 33.3394 46.7507 38.205 43.222Z" fill="#C4C4C9"/>
<path d="M44.3396 10.9753L43.9348 11.2689L43.9348 11.2689L44.3396 10.9753ZM28.7511 1.40478L28.8297 0.911003L28.8296 0.910986L28.7511 1.40478ZM48.5953 28.7648L49.089 28.8434L49.089 28.8434L48.5953 28.7648ZM39.0251 44.3532L39.3186 44.758L39.3186 44.758L39.0251 44.3532ZM5.64644 39.0391L5.24169 39.3326L5.2417 39.3326L5.64644 39.0391ZM10.9613 5.66043L10.6678 5.25568L10.6678 5.25569L10.9613 5.66043ZM47.2154 28.5451L47.7091 28.6237L47.7091 28.6237L47.2154 28.5451ZM38.205 43.222L38.4985 43.6268L38.4985 43.6268L38.205 43.222ZM43.2084 11.7954L42.8036 12.089L42.8036 12.089L43.2084 11.7954ZM28.5311 2.78466L28.6097 2.29088L28.6097 2.29088L28.5311 2.78466ZM11.7814 6.79161L11.4879 6.38685L11.4878 6.38687L11.7814 6.79161ZM6.77764 38.219L6.3729 38.5125L6.37291 38.5126L6.77764 38.219ZM21.4549 47.229L21.5337 46.7352L21.5336 46.7352L21.4549 47.229ZM44.7444 10.6817C40.9185 5.40656 35.2649 1.93582 28.8297 0.911003L28.6725 1.89856C34.8457 2.88167 40.2647 6.20839 43.9348 11.2689L44.7444 10.6817ZM49.089 28.8434C50.1135 22.4083 48.5703 15.9566 44.7443 10.6817L43.9348 11.2689C47.605 16.329 49.0842 22.513 48.1015 28.6862L49.089 28.8434ZM39.3186 44.758C44.5935 40.9321 48.0642 35.2788 49.089 28.8434L48.1015 28.6861C47.1184 34.8597 43.7916 40.2783 38.7315 43.9485L39.3186 44.758ZM25.0242 49.3978C29.9901 49.3978 35.0008 47.8896 39.3186 44.758L38.7315 43.9485C34.5905 46.9519 29.7869 48.3978 25.0242 48.3978V49.3978ZM5.2417 39.3326C10.0098 45.9061 17.4678 49.3978 25.0242 49.3978V48.3978C17.7734 48.3978 10.6226 45.0478 6.05117 38.7455L5.2417 39.3326ZM10.6678 5.25569C-0.223401 13.1554 -2.65738 28.4415 5.24169 39.3326L6.05119 38.7455C-1.52362 28.3014 0.810776 13.6406 11.2549 6.06517L10.6678 5.25569ZM28.8296 0.910986C22.3947 -0.112414 15.9426 1.42975 10.6678 5.25568L11.2549 6.06517C16.315 2.39504 22.4993 0.916789 28.6726 1.89857L28.8296 0.910986ZM46.7216 28.4665C45.7972 34.2716 42.6693 39.3665 37.9114 42.8173L38.4985 43.6268C43.4711 40.0202 46.743 34.6907 47.7091 28.6237L46.7216 28.4665ZM42.8036 12.089C46.2548 16.8472 47.6457 22.6617 46.7216 28.4665L47.7091 28.6237C48.6749 22.557 47.22 16.4748 43.6131 11.5018L42.8036 12.089ZM28.4525 3.27844C34.2576 4.20286 39.3528 7.33105 42.8036 12.089L43.6131 11.5019C40.0066 6.52923 34.6768 3.25701 28.6097 2.29088L28.4525 3.27844ZM24.9451 2.99983C26.1086 2.99983 27.2807 3.09189 28.4525 3.27845L28.6097 2.29088C27.386 2.09607 26.1614 1.99983 24.9451 1.99983V2.99983ZM12.075 7.19637C15.8737 4.4413 20.3443 2.99983 24.9451 2.99983V1.99983C20.1326 1.99983 15.4567 3.50848 11.4879 6.38685L12.075 7.19637ZM7.18239 37.9254C0.0596045 28.1049 2.25481 14.3192 12.075 7.19635L11.4878 6.38687C1.22063 13.8339 -1.07416 28.245 6.3729 38.5125L7.18239 37.9254ZM21.5336 46.7352C15.7288 45.8111 10.6336 42.6833 7.18238 37.9254L6.37291 38.5126C9.97981 43.4851 15.3096 46.757 21.3763 47.7228L21.5336 46.7352ZM37.9114 42.8173C33.1531 46.2682 27.3383 47.6606 21.5337 46.7352L21.3762 47.7228C27.4431 48.69 33.5257 47.2333 38.4985 43.6268L37.9114 42.8173Z" fill="#C4C4C9"/>
</svg>
