<svg width="53" height="50" viewBox="0 0 53 50" fill="none" xmlns="http://www.w3.org/2000/svg">
<path fill-rule="evenodd" clip-rule="evenodd" d="M17.7658 4.28027H19.1564C24.4619 4.28705 28.7616 9.35705 28.7678 15.6136V20.8819C28.7678 21.1419 28.6801 21.3912 28.5241 21.5748C28.3681 21.7585 28.1566 21.8615 27.9362 21.8611H8.98604C8.76558 21.8615 8.55402 21.7586 8.398 21.5749C8.24197 21.3912 8.1543 21.1419 8.1543 20.8819V15.6136C8.16053 9.35702 12.4603 4.28705 17.7658 4.28027ZM9.81761 19.9013H27.1046V15.6136C27.1007 10.4387 23.5447 6.24435 19.1564 6.23861H17.7658C13.3775 6.24435 9.82151 10.4387 9.81761 15.6136V19.9013Z" fill="#C4C4C9"/>
<path d="M19.1564 4.28027L19.157 3.78027H19.1564V4.28027ZM17.7658 4.28027V3.78027L17.7652 3.78027L17.7658 4.28027ZM28.7678 15.6136H29.2678V15.6131L28.7678 15.6136ZM27.9362 21.8611L27.9371 21.3611H27.9362V21.8611ZM8.98604 21.8611V21.3611L8.98504 21.3611L8.98604 21.8611ZM8.398 21.5749L8.77907 21.2512L8.398 21.5749ZM8.1543 15.6136L7.6543 15.6131V15.6136H8.1543ZM27.1046 19.9013V20.4013H27.6046V19.9013H27.1046ZM9.81761 19.9013H9.31761V20.4013H9.81761V19.9013ZM27.1046 15.6136H27.6046V15.6132L27.1046 15.6136ZM19.1564 6.23861L19.157 5.73861H19.1564V6.23861ZM17.7658 6.23861V5.73861L17.7652 5.73861L17.7658 6.23861ZM9.81761 15.6136L9.31761 15.6132V15.6136H9.81761ZM19.1564 3.78027H17.7658V4.78027H19.1564V3.78027ZM29.2678 15.6131C29.2614 9.16105 24.8122 3.78749 19.157 3.78027L19.1558 4.78027C24.1117 4.7866 28.2618 9.55306 28.2678 15.6141L29.2678 15.6131ZM29.2678 20.8819V15.6136H28.2678V20.8819H29.2678ZM28.9052 21.8985C29.1443 21.6171 29.2678 21.2504 29.2678 20.8819H28.2678C28.2678 21.0334 28.216 21.1653 28.143 21.2512L28.9052 21.8985ZM27.9353 22.3611C28.3176 22.3618 28.6641 22.1824 28.9052 21.8985L28.143 21.2512C28.0722 21.3346 27.9956 21.3612 27.9371 21.3611L27.9353 22.3611ZM8.98604 22.3611H27.9362V21.3611H8.98604V22.3611ZM8.01692 21.8986C8.25813 22.1826 8.60466 22.3619 8.98705 22.3611L8.98504 21.3611C8.9265 21.3612 8.8499 21.3346 8.77907 21.2512L8.01692 21.8986ZM7.6543 20.8819C7.6543 21.2504 7.77784 21.6172 8.01692 21.8986L8.77907 21.2512C8.7061 21.1653 8.6543 21.0334 8.6543 20.8819H7.6543ZM7.6543 15.6136V20.8819H8.6543V15.6136H7.6543ZM17.7652 3.78027C12.1101 3.78749 7.66072 9.16101 7.6543 15.6131L8.6543 15.6141C8.66033 9.55303 12.8105 4.7866 17.7665 4.78027L17.7652 3.78027ZM27.1046 19.4013H9.81761V20.4013H27.1046V19.4013ZM26.6046 15.6136V19.9013H27.6046V15.6136H26.6046ZM19.1557 6.73861C23.1945 6.74389 26.6009 10.6346 26.6046 15.614L27.6046 15.6132C27.6006 10.2428 23.895 5.74481 19.157 5.73861L19.1557 6.73861ZM17.7658 6.73861H19.1564V5.73861H17.7658V6.73861ZM10.3176 15.614C10.3214 10.6346 13.7278 6.74389 17.7665 6.73861L17.7652 5.73861C13.0272 5.74481 9.32166 10.2428 9.31761 15.6132L10.3176 15.614ZM10.3176 19.9013V15.6136H9.31761V19.9013H10.3176Z" fill="#C4C4C9"/>
<path fill-rule="evenodd" clip-rule="evenodd" d="M51.6016 34.0207H49.0551C49.0423 34.0207 49.0306 34.0167 49.0189 34.0127L49.0188 34.0127C49.0092 34.0094 48.9997 34.0061 48.9896 34.0051V35.1963C48.9998 35.1954 49.0095 35.1921 49.0192 35.1888C49.0308 35.1849 49.0424 35.1809 49.0551 35.1809H51.6019C52.0608 35.1809 52.4327 35.6195 52.4327 36.1606C52.4327 36.7017 52.0608 37.1403 51.6019 37.1403H49.0555C49.0428 37.1403 49.0311 37.1363 49.0195 37.1324L49.0102 37.1293C49.0059 37.128 49.0016 37.1268 48.9971 37.1259C48.9948 37.1255 48.9924 37.1251 48.9899 37.1249V38.0768C48.9899 38.3367 48.9023 38.586 48.7463 38.7696C48.5903 38.9533 48.3788 39.0563 48.1584 39.0559H45.1737C43.4345 39.051 41.9529 37.5651 41.6694 35.5415C39.6506 35.3478 38.0939 33.3634 38.0869 30.9749V14.7578C38.0919 14.3095 37.8919 13.8927 37.5634 13.6669C37.235 13.4411 36.8289 13.4411 36.5005 13.6669C36.1721 13.8927 35.9721 14.3095 35.977 14.7578V32.3574C35.9769 33.4399 35.5161 34.4501 34.7502 35.0469C33.9843 35.6436 33.0155 35.7472 32.1711 35.3226V42.0818H35.4343C35.8934 42.0821 36.2656 42.5209 36.2659 43.0624V48.4859C36.2659 48.7459 36.1782 48.9951 36.0222 49.1788C35.8662 49.3625 35.6547 49.4655 35.4343 49.4651H1.39822C1.17779 49.4655 0.966272 49.3625 0.810286 49.1788C0.654301 48.9951 0.56665 48.7459 0.56665 48.4859V43.0618C0.566943 42.5203 0.939078 42.0815 1.39822 42.0811H4.65896V1.51529C4.65925 0.973852 5.03138 0.535013 5.49053 0.534668H31.3395C31.7987 0.535013 32.1708 0.973852 32.1711 1.51529V32.3574C32.1661 32.8126 32.3692 33.2358 32.7028 33.4651C33.0363 33.6945 33.4487 33.6945 33.7822 33.4651C34.1157 33.2358 34.3188 32.8126 34.3139 32.3574V14.7578C34.3259 12.9976 35.5393 11.5782 37.032 11.5782C38.5246 11.5782 39.738 12.9976 39.7501 14.7578V30.9749C39.7597 32.2794 40.5831 33.3761 41.68 33.5455C42.0062 31.5735 43.4699 30.1491 45.1737 30.1457H48.158C48.3784 30.1453 48.5899 30.2483 48.7459 30.432C48.9019 30.6157 48.9896 30.8649 48.9896 31.1249V32.0776C48.9998 32.0766 49.0094 32.0734 49.0191 32.0702C49.0307 32.0663 49.0424 32.0624 49.0551 32.0624H51.6016C52.0602 32.0624 52.4319 32.5008 52.4319 33.0415C52.4319 33.5823 52.0602 34.0207 51.6016 34.0207ZM2.22979 47.5055H34.6027V44.0415H2.22979V47.5055ZM6.3221 42.0811V2.49383H30.5078V42.0811H6.3221ZM45.1737 37.0968H47.3264L47.3268 32.1061H45.1737C44.1253 32.1076 43.2756 33.1095 43.2742 34.3459V34.8568C43.2756 36.0932 44.1252 37.0951 45.1737 37.0968Z" fill="#C4C4C9"/>
<path d="M49.0189 34.0127L49.1809 33.5396L49.177 33.5383L49.0189 34.0127ZM49.0188 34.0127L48.857 34.4858L48.8607 34.487L49.0188 34.0127ZM48.9896 34.0051L49.0404 33.5077L48.4896 33.4513V34.0051H48.9896ZM48.9896 35.1963H48.4896V35.745L49.0359 35.6942L48.9896 35.1963ZM49.0192 35.1888L48.8585 34.7153L48.8585 34.7153L49.0192 35.1888ZM49.0195 37.1324L49.1803 36.6589L49.1765 36.6577L49.0195 37.1324ZM49.0102 37.1293L49.1672 36.6545L49.1595 36.6521L49.0102 37.1293ZM48.9971 37.1259L48.902 37.6168L48.9025 37.6169L48.9971 37.1259ZM48.9899 37.1249L49.0359 36.627L48.4899 36.5766V37.1249H48.9899ZM48.1584 39.0559L48.1592 38.5559H48.1584V39.0559ZM45.1737 39.0559L45.1723 39.5559H45.1737V39.0559ZM41.6694 35.5415L42.1646 35.4722L42.1098 35.0815L41.7171 35.0438L41.6694 35.5415ZM38.0869 30.9749H37.5869L37.5869 30.9763L38.0869 30.9749ZM38.0869 14.7578L37.5869 14.7523V14.7578H38.0869ZM35.977 14.7578H36.477L36.477 14.7523L35.977 14.7578ZM35.977 32.3574L36.477 32.3574V32.3574H35.977ZM32.1711 35.3226L32.3957 34.8759L31.6711 34.5115V35.3226H32.1711ZM32.1711 42.0818H31.6711V42.5818H32.1711V42.0818ZM35.4343 42.0818L35.4347 41.5818H35.4343V42.0818ZM36.2659 43.0624H36.7659V43.0621L36.2659 43.0624ZM35.4343 49.4651L35.4352 48.9651H35.4343V49.4651ZM1.39822 49.4651V48.9651H1.39735L1.39822 49.4651ZM0.810286 49.1788L0.429179 49.5025H0.429179L0.810286 49.1788ZM0.56665 43.0618L0.0666504 43.0615V43.0618H0.56665ZM1.39822 42.0811V41.5811H1.39785L1.39822 42.0811ZM4.65896 42.0811V42.5811H5.15896V42.0811H4.65896ZM4.65896 1.51529L4.15896 1.51502V1.51529H4.65896ZM5.49053 0.534668V0.0346678L5.49015 0.0346681L5.49053 0.534668ZM31.3395 0.534668L31.3399 0.034668H31.3395V0.534668ZM32.1711 1.51529H32.6711L32.6711 1.51502L32.1711 1.51529ZM32.1711 32.3574L32.6711 32.3628V32.3574H32.1711ZM32.7028 33.4651L32.9861 33.0531V33.0531L32.7028 33.4651ZM34.3139 32.3574H33.8138L33.8139 32.3628L34.3139 32.3574ZM34.3139 14.7578L33.8139 14.7544V14.7578H34.3139ZM39.7501 14.7578H40.2501L40.2501 14.7544L39.7501 14.7578ZM39.7501 30.9749H39.2501L39.2501 30.9786L39.7501 30.9749ZM41.68 33.5455L41.6037 34.0396L42.0925 34.1152L42.1733 33.6271L41.68 33.5455ZM45.1737 30.1457V29.6457L45.1727 29.6457L45.1737 30.1457ZM48.158 30.1457V30.6457H48.1589L48.158 30.1457ZM48.9896 32.0776H48.4896V32.6262L49.0358 32.5754L48.9896 32.0776ZM49.0191 32.0702L48.8605 31.596L48.8605 31.596L49.0191 32.0702ZM34.6027 47.5055V48.0055H35.1027V47.5055H34.6027ZM2.22979 47.5055H1.72979V48.0055H2.22979V47.5055ZM34.6027 44.0415H35.1027V43.5415H34.6027V44.0415ZM2.22979 44.0415V43.5415H1.72979V44.0415H2.22979ZM6.3221 2.49383V1.99383H5.8221V2.49383H6.3221ZM6.3221 42.0811H5.8221V42.5811H6.3221V42.0811ZM30.5078 2.49383H31.0078V1.99383H30.5078V2.49383ZM30.5078 42.0811V42.5811H31.0078V42.0811H30.5078ZM47.3264 37.0968V37.5968H47.8264L47.8264 37.0968L47.3264 37.0968ZM45.1737 37.0968L45.173 37.5968H45.1737V37.0968ZM47.3268 32.1061L47.8268 32.1062L47.8268 31.6061H47.3268V32.1061ZM45.1737 32.1061V31.6061H45.173L45.1737 32.1061ZM43.2742 34.3459L42.7742 34.3454V34.3459H43.2742ZM43.2742 34.8568H42.7742V34.8573L43.2742 34.8568ZM49.0551 34.5207H51.6016V33.5207H49.0551V34.5207ZM48.8569 34.4857C48.8594 34.4866 48.8851 34.4957 48.9149 34.5032C48.9477 34.5114 48.9962 34.5207 49.0551 34.5207V33.5207C49.1013 33.5207 49.1375 33.528 49.1583 33.5332C49.1761 33.5377 49.19 33.5428 49.1809 33.5397L48.8569 34.4857ZM48.8607 34.487L48.8608 34.487L49.177 33.5383L49.177 33.5383L48.8607 34.487ZM48.9387 34.5025C48.9069 34.4992 48.8826 34.4932 48.8697 34.4896C48.8586 34.4864 48.8499 34.4833 48.857 34.4857L49.1807 33.5396C49.1803 33.5395 49.1169 33.5155 49.0404 33.5077L48.9387 34.5025ZM49.4896 35.1963V34.0051H48.4896V35.1963H49.4896ZM48.8585 34.7153C48.8513 34.7178 48.8603 34.7146 48.8719 34.7114C48.8853 34.7077 48.9104 34.7015 48.9433 34.6985L49.0359 35.6942C49.1144 35.6869 49.1796 35.6624 49.1798 35.6623L48.8585 34.7153ZM49.0551 34.6809C48.9966 34.6809 48.9485 34.6901 48.916 34.6982C48.8865 34.7055 48.861 34.7145 48.8585 34.7153L49.1798 35.6623C49.1889 35.6592 49.1751 35.6642 49.1575 35.6686C49.1368 35.6737 49.1009 35.6809 49.0551 35.6809V34.6809ZM51.6019 34.6809H49.0551V35.6809H51.6019V34.6809ZM52.9327 36.1606C52.9327 35.4239 52.411 34.6809 51.6019 34.6809V35.6809C51.7105 35.6809 51.9327 35.8152 51.9327 36.1606H52.9327ZM51.6019 37.6403C52.411 37.6403 52.9327 36.8974 52.9327 36.1606H51.9327C51.9327 36.506 51.7105 36.6403 51.6019 36.6403V37.6403ZM49.0555 37.6403H51.6019V36.6403H49.0555V37.6403ZM48.8587 37.6058C48.8613 37.6067 48.8868 37.6157 48.9164 37.623C48.9489 37.6311 48.997 37.6403 49.0555 37.6403V36.6403C49.1012 36.6403 49.1371 36.6475 49.1578 36.6526C49.1755 36.657 49.1893 36.662 49.1803 36.659L48.8587 37.6058ZM48.8533 37.604L48.8626 37.6071L49.1765 36.6577L49.1671 36.6546L48.8533 37.604ZM48.9025 37.6169C48.8815 37.6128 48.8663 37.6082 48.8609 37.6065L49.1595 36.6521C49.1455 36.6478 49.1216 36.6407 49.0918 36.635L48.9025 37.6169ZM48.944 37.6228C48.9279 37.6213 48.9138 37.6191 48.902 37.6168L49.0923 36.6351C49.0757 36.6318 49.0568 36.6289 49.0359 36.627L48.944 37.6228ZM49.4899 38.0768V37.1249H48.4899V38.0768H49.4899ZM49.1274 39.0933C49.3664 38.8119 49.4899 38.4452 49.4899 38.0768H48.4899C48.4899 38.2282 48.4381 38.3601 48.3652 38.446L49.1274 39.0933ZM48.1575 39.5559C48.5398 39.5566 48.8862 39.3773 49.1274 39.0933L48.3652 38.446C48.2944 38.5294 48.2178 38.556 48.1592 38.5559L48.1575 39.5559ZM45.1737 39.5559H48.1584V38.5559H45.1737V39.5559ZM41.1742 35.6109C41.4834 37.8176 43.1254 39.5501 45.1723 39.5559L45.1752 38.5559C43.7437 38.5519 42.4224 37.3125 42.1646 35.4722L41.1742 35.6109ZM37.5869 30.9763C37.5944 33.5529 39.2836 35.8149 41.6216 36.0393L41.7171 35.0438C40.0176 34.8807 38.5933 33.1739 38.5869 30.9734L37.5869 30.9763ZM37.5869 14.7578V30.9749H38.5869V14.7578H37.5869ZM37.2801 14.0789C37.4524 14.1974 37.5903 14.4462 37.587 14.7523L38.5869 14.7633C38.5934 14.1727 38.3313 13.5881 37.8467 13.2549L37.2801 14.0789ZM36.7838 14.0789C36.9416 13.9704 37.1223 13.9704 37.2801 14.0789L37.8467 13.2549C37.3477 12.9117 36.7163 12.9117 36.2172 13.2549L36.7838 14.0789ZM36.477 14.7523C36.4736 14.4462 36.6115 14.1974 36.7838 14.0789L36.2172 13.2549C35.7326 13.5881 35.4706 14.1727 35.477 14.7633L36.477 14.7523ZM36.477 32.3574V14.7578H35.477V32.3574H36.477ZM35.0575 35.4413C35.9601 34.738 36.4769 33.5739 36.477 32.3574L35.477 32.3573C35.4769 33.306 35.0721 34.1622 34.4429 34.6524L35.0575 35.4413ZM31.9465 35.7693C32.9694 36.2836 34.1446 36.1525 35.0575 35.4413L34.4429 34.6524C33.824 35.1346 33.0616 35.2107 32.3957 34.8759L31.9465 35.7693ZM32.6711 42.0818V35.3226H31.6711V42.0818H32.6711ZM35.4343 41.5818H32.1711V42.5818H35.4343V41.5818ZM36.7659 43.0621C36.7655 42.3251 36.2437 41.5824 35.4347 41.5818L35.4339 42.5818C35.5432 42.5818 35.7657 42.7168 35.7659 43.0626L36.7659 43.0621ZM36.7659 48.4859V43.0624H35.7659V48.4859H36.7659ZM36.4033 49.5025C36.6423 49.221 36.7659 48.8544 36.7659 48.4859H35.7659C35.7659 48.6374 35.7141 48.7692 35.6411 48.8551L36.4033 49.5025ZM35.4334 49.9651C35.8157 49.9658 36.1622 49.7864 36.4033 49.5025L35.6411 48.8551C35.5703 48.9385 35.4937 48.9652 35.4352 48.9651L35.4334 49.9651ZM1.39822 49.9651H35.4343V48.9651H1.39822V49.9651ZM0.429179 49.5025C0.670329 49.7864 1.01677 49.9658 1.39909 49.9651L1.39735 48.9651C1.3388 48.9652 1.26221 48.9385 1.19139 48.8551L0.429179 49.5025ZM0.0666504 48.4859C0.0666504 48.8544 0.190162 49.221 0.429179 49.5025L1.19139 48.8551C1.11844 48.7692 1.06665 48.6374 1.06665 48.4859H0.0666504ZM0.0666504 43.0618V48.4859H1.06665V43.0618H0.0666504ZM1.39785 41.5811C0.588842 41.5817 0.0670484 42.3245 0.0666505 43.0615L1.06665 43.062C1.06684 42.7162 1.28931 42.5812 1.39859 42.5811L1.39785 41.5811ZM4.65896 41.5811H1.39822V42.5811H4.65896V41.5811ZM4.15896 1.51529V42.0811H5.15896V1.51529H4.15896ZM5.49015 0.0346681C4.68115 0.0352756 4.15935 0.777995 4.15896 1.51502L5.15896 1.51556C5.15914 1.16971 5.38162 1.03475 5.4909 1.03467L5.49015 0.0346681ZM31.3395 0.034668H5.49053V1.03467H31.3395V0.034668ZM32.6711 1.51502C32.6707 0.777995 32.1489 0.0352756 31.3399 0.0346681L31.3391 1.03467C31.4484 1.03475 31.6709 1.16971 31.6711 1.51556L32.6711 1.51502ZM32.6711 32.3574V1.51529H31.6711V32.3574H32.6711ZM32.9861 33.0531C32.8087 32.9312 32.6676 32.6758 32.6711 32.3628L31.6711 32.3519C31.6646 32.9494 31.9298 33.5405 32.4195 33.8772L32.9861 33.0531ZM33.4989 33.0531C33.336 33.1651 33.1489 33.1651 32.9861 33.0531L32.4195 33.8771C32.9236 34.2238 33.5613 34.2238 34.0655 33.8771L33.4989 33.0531ZM33.8139 32.3628C33.8173 32.6758 33.6763 32.9312 33.4989 33.0531L34.0655 33.8771C34.5552 33.5405 34.8203 32.9494 34.8138 32.3519L33.8139 32.3628ZM33.8139 14.7578V32.3574H34.8139V14.7578H33.8139ZM37.032 11.0782C35.1911 11.0782 33.8273 12.799 33.8139 14.7544L34.8139 14.7612C34.8246 13.1962 35.8875 12.0782 37.032 12.0782V11.0782ZM40.2501 14.7544C40.2367 12.799 38.8728 11.0782 37.032 11.0782V12.0782C38.1765 12.0782 39.2394 13.1962 39.2501 14.7612L40.2501 14.7544ZM40.2501 30.9749V14.7578H39.2501V30.9749H40.2501ZM41.7563 33.0514C40.9586 32.9282 40.2584 32.0928 40.2501 30.9712L39.2501 30.9786C39.2611 32.466 40.2075 33.824 41.6037 34.0396L41.7563 33.0514ZM45.1727 29.6457C43.1682 29.6497 41.5428 31.3112 41.1867 33.4639L42.1733 33.6271C42.4696 31.8358 43.7717 30.6485 45.1748 30.6457L45.1727 29.6457ZM48.158 29.6457H45.1737V30.6457H48.158V29.6457ZM49.127 30.1083C48.8859 29.8244 48.5395 29.645 48.1571 29.6457L48.1589 30.6457C48.2174 30.6456 48.294 30.6723 48.3648 30.7556L49.127 30.1083ZM49.4896 31.1249C49.4896 30.7564 49.3661 30.3898 49.127 30.1083L48.3648 30.7556C48.4378 30.8416 48.4896 30.9734 48.4896 31.1249H49.4896ZM49.4896 32.0776V31.1249H48.4896V32.0776H49.4896ZM48.8605 31.596C48.8533 31.5984 48.8621 31.5953 48.8735 31.5922C48.8866 31.5887 48.9112 31.5827 48.9433 31.5797L49.0358 32.5754C49.1131 32.5683 49.1773 32.5445 49.1778 32.5443L48.8605 31.596ZM49.0551 31.5624C48.9974 31.5624 48.9498 31.5713 48.9176 31.5792C48.8883 31.5864 48.863 31.5951 48.8605 31.596L49.1777 32.5443C49.1868 32.5413 49.1732 32.5462 49.1558 32.5504C49.1355 32.5554 49.1002 32.5624 49.0551 32.5624V31.5624ZM51.6016 31.5624H49.0551V32.5624H51.6016V31.5624ZM52.9319 33.0415C52.9319 32.3051 52.4104 31.5624 51.6016 31.5624V32.5624C51.7099 32.5624 51.9319 32.6964 51.9319 33.0415H52.9319ZM51.6016 34.5207C52.4104 34.5207 52.9319 33.778 52.9319 33.0415H51.9319C51.9319 33.3866 51.7099 33.5207 51.6016 33.5207V34.5207ZM34.6027 47.0055H2.22979V48.0055H34.6027V47.0055ZM34.1027 44.0415V47.5055H35.1027V44.0415H34.1027ZM2.22979 44.5415H34.6027V43.5415H2.22979V44.5415ZM2.72979 47.5055V44.0415H1.72979V47.5055H2.72979ZM5.8221 2.49383V42.0811H6.8221V2.49383H5.8221ZM30.5078 1.99383H6.3221V2.99383H30.5078V1.99383ZM31.0078 42.0811V2.49383H30.0078V42.0811H31.0078ZM6.3221 42.5811H30.5078V41.5811H6.3221V42.5811ZM47.3264 36.5968H45.1737V37.5968H47.3264V36.5968ZM46.8268 32.1061L46.8264 37.0967L47.8264 37.0968L47.8268 32.1062L46.8268 32.1061ZM45.1737 32.6061H47.3268V31.6061H45.1737V32.6061ZM43.7742 34.3465C43.7754 33.3055 44.4755 32.6071 45.1745 32.6061L45.173 31.6061C43.7751 31.6081 42.7758 32.9135 42.7742 34.3454L43.7742 34.3465ZM43.7742 34.8568V34.3459H42.7742V34.8568H43.7742ZM45.1745 36.5968C44.4755 36.5957 43.7754 35.8972 43.7742 34.8562L42.7742 34.8573C42.7758 36.2892 43.775 37.5946 45.173 37.5968L45.1745 36.5968Z" fill="#C4C4C9"/>
<path fill-rule="evenodd" clip-rule="evenodd" d="M20.4261 29.8122H23.5817V29.8134C23.936 29.8133 24.2513 30.0782 24.3669 30.4731C24.4825 30.8679 24.3729 31.3058 24.0941 31.5634L14.3308 40.6051C14.1848 40.7408 14.0042 40.8142 13.8184 40.8134C13.5287 40.8137 13.2598 40.6358 13.1089 40.344C12.9581 40.0523 12.9471 39.6889 13.08 39.3853L15.8388 33.0643H13.3423C13.0453 33.0647 12.7707 32.878 12.6222 32.5747C12.4737 32.2713 12.4739 31.8976 12.6227 31.5945L16.5271 23.6191C16.6755 23.3161 16.9498 23.1297 17.2465 23.1299H22.0099C22.3004 23.1296 22.5699 23.3084 22.7205 23.6012C22.8711 23.8941 22.881 24.2585 22.7466 24.5622L20.4261 29.8122ZM17.9383 32.5318L16.2994 36.2913L21.1784 31.7707H19.0562C18.7658 31.7709 18.4964 31.5921 18.3458 31.2993C18.1952 31.0064 18.1853 30.642 18.3197 30.3384L20.6401 25.0884H17.7261L14.7811 31.1045H17.2C17.4895 31.1045 17.7581 31.2823 17.9089 31.5737C18.0596 31.8652 18.0708 32.2282 17.9383 32.5318Z" fill="#C4C4C9"/>
<path d="M23.5817 29.8122H23.7817V29.6122H23.5817V29.8122ZM20.4261 29.8122L20.2432 29.7313L20.119 30.0122H20.4261V29.8122ZM23.5817 29.8134H23.3817V30.0135L23.5818 30.0134L23.5817 29.8134ZM24.3669 30.4731L24.175 30.5292L24.3669 30.4731ZM24.0941 31.5634L23.9584 31.4165L23.9582 31.4167L24.0941 31.5634ZM14.3308 40.6051L14.1949 40.4584L14.1946 40.4586L14.3308 40.6051ZM13.8184 40.8134L13.8193 40.6134L13.8183 40.6134L13.8184 40.8134ZM13.08 39.3853L13.2632 39.4655L13.2633 39.4653L13.08 39.3853ZM15.8388 33.0643L16.0221 33.1443L16.1443 32.8643H15.8388V33.0643ZM13.3423 33.0643V32.8643H13.342L13.3423 33.0643ZM12.6222 32.5747L12.8018 32.4867H12.8018L12.6222 32.5747ZM12.6227 31.5945L12.8023 31.6826L12.8024 31.6824L12.6227 31.5945ZM16.5271 23.6191L16.3475 23.531L16.3474 23.5311L16.5271 23.6191ZM17.2465 23.1299L17.2463 23.3299H17.2465V23.1299ZM22.0099 23.1299V23.3299L22.0101 23.3299L22.0099 23.1299ZM22.7205 23.6012L22.8983 23.5098L22.7205 23.6012ZM22.7466 24.5622L22.5637 24.4812L22.5637 24.4813L22.7466 24.5622ZM16.2994 36.2913L16.116 36.2114L16.4353 36.438L16.2994 36.2913ZM17.9383 32.5318L17.755 32.4517L17.755 32.4518L17.9383 32.5318ZM21.1784 31.7707L21.3143 31.9174L21.6885 31.5707H21.1784V31.7707ZM19.0562 31.7707V31.5707H19.0561L19.0562 31.7707ZM18.3197 30.3384L18.5026 30.4194L18.5026 30.4193L18.3197 30.3384ZM20.6401 25.0884L20.823 25.1693L20.9471 24.8884H20.6401V25.0884ZM17.7261 25.0884V24.8884H17.6013L17.5465 25.0005L17.7261 25.0884ZM14.7811 31.1045L14.6014 31.0165L14.4605 31.3045H14.7811V31.1045ZM17.2 31.1045V31.3045H17.2L17.2 31.1045ZM17.9089 31.5737L17.7312 31.6656L17.9089 31.5737ZM23.5817 29.6122H20.4261V30.0122H23.5817V29.6122ZM23.7817 29.8134V29.8122H23.3817V29.8134H23.7817ZM24.5589 30.4169C24.4237 29.9553 24.0427 29.6132 23.5816 29.6134L23.5818 30.0134C23.8293 30.0133 24.0789 30.2011 24.175 30.5292L24.5589 30.4169ZM24.2298 31.7103C24.5701 31.396 24.6936 30.877 24.5589 30.4169L24.175 30.5292C24.2715 30.8589 24.1758 31.2156 23.9584 31.4165L24.2298 31.7103ZM14.4666 40.7518L24.23 31.7102L23.9582 31.4167L14.1949 40.4584L14.4666 40.7518ZM13.8176 41.0134C14.0581 41.0144 14.2867 40.9191 14.4669 40.7516L14.1946 40.4586C14.0829 40.5624 13.9504 40.614 13.8193 40.6134L13.8176 41.0134ZM12.9313 40.4359C13.1109 40.7832 13.4425 41.0137 13.8186 41.0134L13.8183 40.6134C13.6149 40.6136 13.4087 40.4883 13.2866 40.2522L12.9313 40.4359ZM12.8967 39.3051C12.74 39.6634 12.7524 40.09 12.9313 40.4359L13.2866 40.2522C13.1637 40.0146 13.1542 39.7145 13.2632 39.4655L12.8967 39.3051ZM15.6555 32.9843L12.8967 39.3053L13.2633 39.4653L16.0221 33.1443L15.6555 32.9843ZM13.3423 33.2643H15.8388V32.8643H13.3423V33.2643ZM12.4426 32.6626C12.619 33.0229 12.9569 33.2648 13.3426 33.2643L13.342 32.8643C13.1337 32.8645 12.9224 32.733 12.8018 32.4867L12.4426 32.6626ZM12.4432 31.5063C12.2671 31.865 12.2669 32.3037 12.4426 32.6626L12.8018 32.4867C12.6805 32.2389 12.6807 31.9302 12.8023 31.6826L12.4432 31.5063ZM16.3474 23.5311L12.4431 31.5065L12.8024 31.6824L16.7067 23.707L16.3474 23.5311ZM17.2466 22.9299C16.8614 22.9296 16.5239 23.1712 16.3475 23.531L16.7067 23.7071C16.8272 23.4611 17.0382 23.3297 17.2463 23.3299L17.2466 22.9299ZM22.0099 22.9299H17.2465V23.3299H22.0099V22.9299ZM22.8983 23.5098C22.7191 23.1612 22.3868 22.9295 22.0097 22.9299L22.0101 23.3299C22.214 23.3297 22.4207 23.4556 22.5426 23.6927L22.8983 23.5098ZM22.9295 24.6431C23.0882 24.2847 23.0769 23.8569 22.8983 23.5098L22.5426 23.6927C22.6654 23.9313 22.6739 24.2323 22.5637 24.4812L22.9295 24.6431ZM20.609 29.893L22.9296 24.643L22.5637 24.4813L20.2432 29.7313L20.609 29.893ZM16.4827 36.3713L18.1216 32.6117L17.755 32.4518L16.116 36.2114L16.4827 36.3713ZM21.0424 31.624L16.1634 36.1446L16.4353 36.438L21.3143 31.9174L21.0424 31.624ZM19.0562 31.9707H21.1784V31.5707H19.0562V31.9707ZM18.1679 31.3907C18.3472 31.7393 18.6794 31.971 19.0564 31.9707L19.0561 31.5707C18.8522 31.5708 18.6456 31.4449 18.5237 31.2078L18.1679 31.3907ZM18.1368 30.2575C17.9782 30.6158 17.9894 31.0436 18.1679 31.3907L18.5237 31.2078C18.401 30.9692 18.3924 30.6683 18.5026 30.4194L18.1368 30.2575ZM20.4571 25.0076L18.1368 30.2576L18.5026 30.4193L20.823 25.1693L20.4571 25.0076ZM17.7261 25.2884H20.6401V24.8884H17.7261V25.2884ZM14.9607 31.1924L17.9057 25.1764L17.5465 25.0005L14.6014 31.0165L14.9607 31.1924ZM17.2 30.9045H14.7811V31.3045H17.2V30.9045ZM18.0865 31.4818C17.907 31.1349 17.5758 30.9045 17.2 30.9045L17.2 31.3045C17.4032 31.3045 17.6092 31.4297 17.7312 31.6656L18.0865 31.4818ZM18.1216 32.6118C18.2779 32.2536 18.2653 31.8274 18.0865 31.4818L17.7312 31.6656C17.854 31.903 17.8636 32.2028 17.755 32.4517L18.1216 32.6118Z" fill="#C4C4C9"/>
</svg>
