<svg width="50" height="48" viewBox="0 0 50 48" fill="none" xmlns="http://www.w3.org/2000/svg">
<path fill-rule="evenodd" clip-rule="evenodd" d="M48.64 46.6425H46.3975V38.1525C46.3975 37.8974 46.4725 37.6424 46.6075 37.4249L47.3275 36.285C47.5375 35.9549 47.65 35.5649 47.65 35.1749V26.0775C47.65 24.9525 46.75 24.0375 45.6325 24V18.12C45.6325 17.49 45.1225 16.98 44.4925 16.98C43.8625 16.98 43.3525 17.49 43.3525 18.12V24H40.18V22.905H40.36C40.555 22.905 40.72 22.7474 40.72 22.545V21.33C40.72 21.135 40.5625 20.97 40.36 20.97H37.9675C37.7725 20.97 37.6075 21.1275 37.6075 21.33V22.545C37.6075 22.74 37.765 22.905 37.9675 22.905H38.1475V24H36.535V22.905H36.715C36.91 22.905 37.075 22.7474 37.075 22.545V21.33C37.075 21.135 36.9175 20.97 36.715 20.97H34.3225C34.1275 20.97 33.9625 21.1275 33.9625 21.33V22.545C33.9625 22.74 34.12 22.905 34.3225 22.905H34.5025V24H32.95C31.8025 24 30.8725 24.93 30.8725 26.0775V32.8425C29.755 32.3625 27.13 31.2675 24.91 30.345C24.9025 30.3412 24.8969 30.3375 24.8913 30.3337L24.8912 30.3337C24.8856 30.3299 24.88 30.3262 24.8725 30.3225C24.8575 30.315 24.8425 30.315 24.8275 30.315C24.4641 30.1627 24.1119 30.0168 23.7805 29.8795L23.7804 29.8795L23.7795 29.8791C23.393 29.719 23.0348 29.5706 22.72 29.4375V27.9C24.7675 26.5125 26.1925 24.2625 26.4775 21.6825C28.18 21.525 29.5225 20.1075 29.5225 18.3675C29.5225 17.235 28.93 16.185 27.97 15.57C27.9737 15.5362 27.978 15.5024 27.9822 15.4687C27.9948 15.3674 28.0075 15.2662 28.0075 15.165V12.615L30.3025 10.4775C31.1275 9.71245 31.225 8.42245 30.5275 7.48495C30.085 6.88495 29.77 6.18745 29.5825 5.39995C29.35 4.40245 28.5025 3.68995 27.5125 3.66745C23.32 3.57745 20.47 1.97995 19.1425 1.04245C18.385 0.502451 17.365 0.502451 16.6075 1.04245C15.28 1.97995 12.43 3.57745 8.23 3.66745C7.2475 3.68995 6.4 4.40245 6.1675 5.39995C5.9875 6.18745 5.665 6.89245 5.2225 7.48495C4.525 8.42245 4.6225 9.70495 5.4475 10.4775L7.735 12.615V15.165C7.735 15.2662 7.74766 15.3674 7.76031 15.4687L7.76033 15.4688C7.76454 15.5025 7.76875 15.5362 7.7725 15.57C6.8125 16.185 6.2275 17.2275 6.2275 18.3675C6.2275 20.1 7.555 21.51 9.2725 21.6825C9.5575 24.27 10.9825 26.52 13.0375 27.9075V29.4225L10.8925 30.3075C10.885 30.3075 10.8775 30.3075 10.87 30.315C10.8679 30.315 10.8665 30.3155 10.8652 30.3163L10.8633 30.3179L10.8625 30.3187C10.8606 30.3206 10.8587 30.3225 10.855 30.3225L5.035 32.715C3.16 33.4874 1.9525 35.2949 1.9525 37.32V46.6425H1.36C1.1575 46.6425 1 46.8075 1 47.0025C1 47.1975 1.1575 47.3624 1.36 47.3624H48.64C48.835 47.3624 49 47.205 49 47.0025C49 46.8 48.8425 46.6425 48.64 46.6425ZM44.0725 18.1275C44.0725 17.895 44.26 17.7075 44.4925 17.7075C44.725 17.7075 44.9125 17.895 44.9125 18.1275V24H44.0725V18.1275ZM40 21.6825H38.3275V22.1775H38.5075H39.82H40V21.6825ZM38.8675 22.8975H39.4675V24H38.8675V22.8975ZM36.355 21.6825H34.6825V22.1775H34.8625H36.175H36.355V21.6825ZM35.215 22.8975H35.8075V24H35.215V22.8975ZM32.95 24.7125C32.1925 24.7125 31.585 25.3275 31.585 26.0775H31.5925V35.1749C31.5925 35.43 31.6675 35.685 31.8025 35.9025L32.5225 37.0424C32.7325 37.3725 32.845 37.755 32.845 38.1525V46.4925H45.6775V38.1525C45.6775 37.7625 45.79 37.3725 46 37.0424L46.72 35.9025C46.855 35.685 46.93 35.43 46.93 35.1749V26.0775C46.93 25.32 46.3225 24.7125 45.5725 24.7125H45.2725H43.7125H39.82H38.5075H36.175H34.8625H32.95ZM24.25 30.8475L22.5925 34.7175C22.465 35.0175 22.21 35.235 21.9025 35.325C21.595 35.415 21.2575 35.3624 20.995 35.1749L18.925 33.735L18.4675 33.42L22.4125 30.075C22.7381 30.2145 23.078 30.3564 23.4268 30.502C23.6967 30.6147 23.9719 30.7297 24.25 30.8475ZM18.9625 35.58L19.5175 35.025L18.28 34.17L17.8675 33.885L16.81 34.62L16.225 35.025L16.78 35.58H18.9625ZM15.8425 43.2599L16.945 36.2999H18.805L19.9075 43.2599L17.875 45.09L15.8425 43.2599ZM13.8475 35.325C14.155 35.415 14.4925 35.3624 14.755 35.1749L15.6325 34.575L17.29 33.4275L13.345 30.09L11.5 30.8475L13.1575 34.7174C13.285 35.0099 13.5325 35.235 13.8475 35.325ZM24.1825 15.69C23.9875 15.7275 23.785 15.75 23.575 15.75H12.1825C11.9875 15.75 11.7925 15.7275 11.5975 15.69C11.5712 15.6862 11.5469 15.6806 11.5225 15.675L11.5225 15.6749L11.5224 15.6749L11.5224 15.6749L11.5224 15.6749L11.5223 15.6749L11.5223 15.6749L11.5223 15.6749L11.5222 15.6749L11.5222 15.6749L11.5222 15.6749L11.5222 15.6749C11.4979 15.6693 11.4736 15.6637 11.4475 15.66C11.275 15.6225 11.11 15.57 10.9525 15.5025C10.9413 15.4987 10.9319 15.495 10.9225 15.4912L10.9225 15.4912C10.9131 15.4874 10.9037 15.4837 10.8925 15.48C10.72 15.405 10.5475 15.3075 10.39 15.195C10.3525 15.1725 10.315 15.1425 10.2775 15.1125C10.1275 15 9.9925 14.88 9.865 14.745C9.6475 14.5125 9.46 14.25 9.3175 13.95C9.205 13.71 9.1 13.4625 9.0175 13.2075H26.725C26.62 13.5375 26.4775 13.8675 26.305 14.19C26.1925 14.3925 26.0575 14.58 25.9 14.7525H25.8925C25.465 15.2175 24.895 15.5325 24.2725 15.6675C24.2575 15.6775 24.2358 15.6808 24.2142 15.6841C24.2033 15.6858 24.1925 15.6875 24.1825 15.69ZM26.53 17.0175C27.01 16.53 27.2875 15.8625 27.2875 15.1725V13.785C27.19 14.0325 27.0775 14.28 26.95 14.5275C26.83 14.7525 26.6875 14.9475 26.53 15.135V17.0175ZM27.085 12.495H20.4475C20.95 12.195 21.3925 11.82 21.76 11.37H28.2925L27.085 12.495ZM13.5625 8.16745C13.5625 10.5525 15.4975 12.4875 17.875 12.4875C20.2525 12.4875 22.1875 10.5525 22.195 8.16745C22.195 5.78995 20.2525 3.85495 17.875 3.85495C15.4975 3.85495 13.5625 5.78995 13.5625 8.16745ZM15.3025 12.495H8.665L7.4575 11.37H13.99C14.3575 11.8125 14.8 12.195 15.3025 12.495ZM8.4625 13.77V15.1725C8.4625 15.8625 8.74 16.53 9.2275 17.025V15.1125C9.01 14.8575 8.8225 14.58 8.6725 14.2725C8.614 14.1554 8.56681 14.0347 8.52023 13.9155C8.50113 13.8666 8.48213 13.8179 8.4625 13.77ZM28.795 18.3675C28.795 19.695 27.7975 20.7825 26.515 20.955C26.515 20.9175 26.5187 20.88 26.5225 20.8425C26.5262 20.805 26.53 20.7675 26.53 20.7299V18.03L27.0025 17.565C27.355 17.2125 27.6175 16.785 27.79 16.3275C28.4125 16.8225 28.795 17.565 28.795 18.3675ZM6.8725 5.56495C6.6625 6.44995 6.31 7.24495 5.8075 7.91995C5.32 8.57245 5.38 9.42745 5.9425 9.95995L6.685 10.65H13.4875C13.075 9.92245 12.835 9.07495 12.835 8.17495C12.835 5.39995 15.0925 3.14245 17.8675 3.14245C20.65 3.14245 22.9075 5.39995 22.9075 8.17495C22.9075 9.07495 22.6675 9.91495 22.255 10.65H29.065L29.8075 9.95995C30.37 9.42745 30.43 8.57245 29.9425 7.91995C29.44 7.23745 29.08 6.44995 28.8775 5.56495C28.7275 4.88995 28.1575 4.40245 27.4975 4.38745C23.11 4.28995 20.125 2.61745 18.73 1.62745C18.22 1.26745 17.5375 1.26745 17.0275 1.62745C15.6325 2.61745 12.64 4.28995 8.2525 4.38745C7.6 4.40245 7.03 4.88245 6.8725 5.56495ZM6.955 18.3675C6.955 17.565 7.33 16.815 7.96 16.32C8.1325 16.785 8.3875 17.2125 8.7475 17.5575L9.22 18.0225V20.7225C9.22 20.7975 9.2275 20.8725 9.235 20.9475C7.9525 20.79 6.955 19.7025 6.955 18.3675ZM9.94 15.7575V20.7299C9.94 25.11 13.495 28.68 17.875 28.68C22.255 28.68 25.81 25.1175 25.81 20.745V15.795H25.8025C25.6525 15.9 25.495 15.99 25.33 16.0725C25.3225 16.0762 25.3131 16.08 25.3037 16.0837L25.2917 16.0886C25.2866 16.0907 25.2817 16.0928 25.2775 16.095C25.1275 16.1625 24.97 16.2225 24.8125 16.275C24.7975 16.2787 24.7825 16.2843 24.7675 16.2899L24.7675 16.29L24.7675 16.29C24.7525 16.2956 24.7375 16.3012 24.7225 16.305C24.5725 16.35 24.4225 16.38 24.265 16.41L24.1525 16.4325C23.965 16.4625 23.77 16.4775 23.575 16.4775H12.19C11.995 16.4775 11.8 16.4625 11.6125 16.4325C11.545 16.425 11.485 16.41 11.425 16.395C11.3854 16.3856 11.3458 16.377 11.3064 16.3685L11.3063 16.3685C11.219 16.3495 11.1327 16.3308 11.05 16.305C10.9919 16.2875 10.9383 16.2656 10.8822 16.2426L10.8325 16.2225C10.7275 16.185 10.6225 16.14 10.5175 16.095C10.48 16.0762 10.4444 16.0556 10.4087 16.0349C10.3731 16.0143 10.3375 15.9937 10.3 15.975C10.2025 15.9225 10.1125 15.87 10.0225 15.81C9.9925 15.7875 9.97 15.7725 9.94 15.7575ZM17.875 29.385C19.3675 29.385 20.77 29.0025 21.9925 28.3425V29.49L17.875 32.9775L13.765 29.4975V28.3425C14.9875 29.01 16.39 29.385 17.875 29.385ZM5.3125 33.3825C3.73 34.035 2.6725 35.6175 2.6725 37.32V46.6424H32.11V38.1525C32.11 37.8974 32.035 37.6425 31.9 37.4249L31.18 36.285C30.97 35.955 30.8575 35.5724 30.8575 35.1749V33.6225C30.145 33.3149 27.4975 32.205 24.9025 31.125L23.2375 35.0024C23.02 35.505 22.6 35.8725 22.0825 36.0224C21.9175 36.0675 21.7525 36.09 21.5875 36.09C21.2275 36.09 20.875 35.9775 20.5675 35.7675L20.1025 35.445L19.48 36.0675L20.635 43.3425C20.6575 43.4625 20.6125 43.5825 20.5225 43.665L18.1075 45.84C18.04 45.9 17.9575 45.93 17.8675 45.93C17.785 45.93 17.695 45.9 17.6275 45.84L15.205 43.665C15.115 43.5825 15.07 43.4625 15.0925 43.3425L16.2475 36.0675L15.625 35.445L15.16 35.7675C14.8525 35.9775 14.5 36.09 14.14 36.09C13.975 36.09 13.81 36.0675 13.645 36.0224C13.1275 35.8725 12.7 35.4975 12.49 35.0024L10.825 31.1175L5.3125 33.3825Z" fill="#C4C4C9"/>
<path d="M46.3975 46.6425H45.8975V47.1425H46.3975V46.6425ZM46.6075 37.4249L46.1847 37.1579L46.1827 37.1613L46.6075 37.4249ZM47.3275 36.285L46.9057 36.0165L46.9048 36.018L47.3275 36.285ZM45.6325 24H45.1325V24.4835L45.6157 24.4997L45.6325 24ZM43.3525 24V24.5H43.8525V24H43.3525ZM40.18 24H39.68V24.5H40.18V24ZM40.18 22.905V22.405H39.68V22.905H40.18ZM38.1475 22.905H38.6475V22.405H38.1475V22.905ZM38.1475 24V24.5H38.6475V24H38.1475ZM36.535 24H36.035V24.5H36.535V24ZM36.535 22.905V22.405H36.035V22.905H36.535ZM34.5025 22.905H35.0025V22.405H34.5025V22.905ZM34.5025 24V24.5H35.0025V24H34.5025ZM30.8725 32.8425L30.6752 33.3019L31.3725 33.6014V32.8425H30.8725ZM24.91 30.345L24.6864 30.7922L24.702 30.8L24.7181 30.8067L24.91 30.345ZM24.8913 30.3337L24.6006 30.7406L24.6072 30.7453L24.6139 30.7497L24.8913 30.3337ZM24.8912 30.3337L25.1818 29.9268L25.1752 29.9221L25.1685 29.9176L24.8912 30.3337ZM24.8275 30.315L24.6343 30.7761L24.727 30.815H24.8275V30.315ZM23.7805 29.8795L23.5774 30.3366L23.5891 30.3415L23.7805 29.8795ZM23.7804 29.8795L23.9835 29.4224L23.9725 29.4178L23.7804 29.8795ZM23.7795 29.8791L23.9716 29.4175L23.9709 29.4172L23.7795 29.8791ZM22.72 29.4375H22.22V29.7688L22.5252 29.8979L22.72 29.4375ZM22.72 27.9L22.4395 27.486L22.22 27.6348V27.9H22.72ZM26.4775 21.6825L26.4314 21.1846L26.0253 21.2221L25.9805 21.6276L26.4775 21.6825ZM27.97 15.57L27.4731 15.5147L27.4388 15.8234L27.7003 15.991L27.97 15.57ZM27.9822 15.4687L27.486 15.4067L27.486 15.4067L27.9822 15.4687ZM28.0075 12.615L27.6667 12.2491L27.5075 12.3974V12.615H28.0075ZM30.3025 10.4775L29.9625 10.1108L29.9617 10.1116L30.3025 10.4775ZM30.5275 7.48495L30.1251 7.78172L30.1263 7.78341L30.5275 7.48495ZM29.5825 5.39995L29.0955 5.51345L29.0961 5.51576L29.5825 5.39995ZM27.5125 3.66745L27.5239 3.16758L27.5232 3.16757L27.5125 3.66745ZM19.1425 1.04245L18.8523 1.44959L18.8541 1.45087L19.1425 1.04245ZM16.6075 1.04245L16.8959 1.45088L16.8977 1.44959L16.6075 1.04245ZM8.23 3.66745L8.21929 3.16757L8.21855 3.16758L8.23 3.66745ZM6.1675 5.39995L5.68055 5.28645L5.68007 5.28854L6.1675 5.39995ZM5.2225 7.48495L4.82189 7.18576L4.82135 7.18649L5.2225 7.48495ZM5.4475 10.4775L5.10575 10.8424L5.10613 10.8428L5.4475 10.4775ZM7.735 12.615H8.235V12.3978L8.07637 12.2496L7.735 12.615ZM7.76033 15.4688L8.25646 15.4068L8.25646 15.4068L7.76033 15.4688ZM7.7725 15.57L8.04221 15.991L8.30374 15.8234L8.26944 15.5147L7.7725 15.57ZM9.2725 21.6825L9.76949 21.6277L9.72518 21.2254L9.32247 21.185L9.2725 21.6825ZM13.0375 27.9075H13.5375V27.6417L13.3173 27.4931L13.0375 27.9075ZM13.0375 29.4225L13.2282 29.8847L13.5375 29.757V29.4225H13.0375ZM10.8925 30.3075V30.8075H10.9916L11.0832 30.7697L10.8925 30.3075ZM10.87 30.315V30.815H11.0771L11.2236 30.6685L10.87 30.315ZM10.8652 30.3163L10.5898 29.899L10.5682 29.9133L10.5481 29.9297L10.8652 30.3163ZM10.8633 30.3179L10.5463 29.9313L10.5285 29.9458L10.5122 29.9619L10.8633 30.3179ZM10.8625 30.3187L10.5113 29.9628L10.5089 29.9651L10.8625 30.3187ZM10.855 30.3225V29.8225H10.7562L10.6649 29.86L10.855 30.3225ZM5.035 32.715L4.84489 32.2525L4.84453 32.2526L5.035 32.715ZM1.9525 46.6425V47.1425H2.4525V46.6425H1.9525ZM44.9125 24V24.5H45.4125V24H44.9125ZM44.0725 24H43.5725V24.5H44.0725V24ZM38.3275 21.6825V21.1825H37.8275V21.6825H38.3275ZM40 21.6825H40.5V21.1825H40V21.6825ZM38.3275 22.1775H37.8275V22.6775H38.3275V22.1775ZM40 22.1775V22.6775H40.5V22.1775H40ZM39.4675 22.8975H39.9675V22.3975H39.4675V22.8975ZM38.8675 22.8975V22.3975H38.3675V22.8975H38.8675ZM39.4675 24V24.5H39.9675V24H39.4675ZM38.8675 24H38.3675V24.5H38.8675V24ZM34.6825 21.6825V21.1825H34.1825V21.6825H34.6825ZM36.355 21.6825H36.855V21.1825H36.355V21.6825ZM34.6825 22.1775H34.1825V22.6775H34.6825V22.1775ZM36.355 22.1775V22.6775H36.855V22.1775H36.355ZM35.8075 22.8975H36.3075V22.3975H35.8075V22.8975ZM35.215 22.8975V22.3975H34.715V22.8975H35.215ZM35.8075 24V24.5H36.3075V24H35.8075ZM35.215 24H34.715V24.5H35.215V24ZM31.585 26.0775H31.085V26.5775H31.585V26.0775ZM31.5925 26.0775H32.0925V25.5775H31.5925V26.0775ZM31.8025 35.9025L31.3777 36.1661L31.3798 36.1694L31.8025 35.9025ZM32.5225 37.0424L32.0998 37.3094L32.1007 37.3109L32.5225 37.0424ZM32.845 46.4925H32.345V46.9925H32.845V46.4925ZM45.6775 46.4925V46.9925H46.1775V46.4925H45.6775ZM46 37.0424L46.4218 37.3109L46.4227 37.3094L46 37.0424ZM46.72 35.9025L47.1428 36.1695L47.1448 36.1661L46.72 35.9025ZM22.5925 34.7175L22.1329 34.5206L22.1323 34.5219L22.5925 34.7175ZM24.25 30.8475L24.7096 31.0443L24.9073 30.5828L24.445 30.387L24.25 30.8475ZM21.9025 35.325L21.7621 34.8451L21.9025 35.325ZM20.995 35.1749L21.2856 34.7681L21.2805 34.7645L20.995 35.1749ZM18.925 33.735L19.2105 33.3245L19.2086 33.3231L18.925 33.735ZM18.4675 33.42L18.1441 33.0386L17.6457 33.4612L18.184 33.8318L18.4675 33.42ZM22.4125 30.075L22.6095 29.6154L22.3251 29.4935L22.0891 29.6936L22.4125 30.075ZM23.4268 30.502L23.2341 30.9634H23.2341L23.4268 30.502ZM19.5175 35.025L19.8711 35.3785L20.2951 34.9545L19.8017 34.6136L19.5175 35.025ZM18.9625 35.58V36.08H19.1696L19.3161 35.9335L18.9625 35.58ZM18.28 34.17L18.5642 33.7586L18.28 34.17ZM17.8675 33.885L18.1517 33.4736L17.8667 33.2766L17.5821 33.4744L17.8675 33.885ZM16.81 34.62L17.0946 35.0311L17.0954 35.0305L16.81 34.62ZM16.225 35.025L15.9404 34.6139L15.4478 34.9549L15.8714 35.3785L16.225 35.025ZM16.78 35.58L16.4264 35.9335L16.5729 36.08H16.78V35.58ZM16.945 36.2999V35.7999H16.518L16.4512 36.2217L16.945 36.2999ZM15.8425 43.2599L15.3487 43.1817L15.3062 43.4499L15.5079 43.6315L15.8425 43.2599ZM18.805 36.2999L19.2988 36.2217L19.232 35.7999H18.805V36.2999ZM19.9075 43.2599L20.2421 43.6315L20.4438 43.4499L20.4013 43.1817L19.9075 43.2599ZM17.875 45.09L17.5404 45.4615L17.875 45.7628L18.2096 45.4615L17.875 45.09ZM14.755 35.1749L14.4727 34.7621L14.4644 34.7681L14.755 35.1749ZM13.8475 35.325L13.988 34.8451L13.9849 34.8442L13.8475 35.325ZM15.6325 34.575L15.9147 34.9877L15.9171 34.986L15.6325 34.575ZM17.29 33.4275L17.5746 33.8385L18.1111 33.4672L17.6129 33.0457L17.29 33.4275ZM13.345 30.09L13.6679 29.7082L13.4361 29.5121L13.1551 29.6274L13.345 30.09ZM11.5 30.8475L11.3101 30.3849L10.8405 30.5777L11.0404 31.0443L11.5 30.8475ZM13.1575 34.7174L12.6979 34.9143L12.6992 34.9172L13.1575 34.7174ZM24.1825 15.69L24.2769 16.181L24.2904 16.1784L24.3037 16.175L24.1825 15.69ZM11.5975 15.69L11.6919 15.1989L11.6801 15.1967L11.6682 15.195L11.5975 15.69ZM11.5225 15.675L11.6349 15.1878L11.6235 15.1851L11.6119 15.183L11.5225 15.675ZM11.5222 15.6749L11.4096 16.1621L11.4211 16.1647L11.4327 16.1668L11.5222 15.6749ZM11.4475 15.66L11.3413 16.1485L11.359 16.1524L11.3769 16.1549L11.4475 15.66ZM10.9525 15.5025L11.1495 15.0429L11.1303 15.0347L11.1106 15.0281L10.9525 15.5025ZM10.9225 15.4912L10.7302 15.9528L10.7368 15.9554L10.9225 15.4912ZM10.9225 15.4912L11.1148 15.0296L11.1081 15.0269L10.9225 15.4912ZM10.8925 15.48L10.6931 15.9385L10.7134 15.9473L10.7344 15.9543L10.8925 15.48ZM10.39 15.195L10.6806 14.7881L10.6644 14.7765L10.6473 14.7662L10.39 15.195ZM10.2775 15.1125L10.5899 14.722L10.5838 14.7171L10.5775 14.7125L10.2775 15.1125ZM9.865 14.745L9.49986 15.0865L9.50149 15.0883L9.865 14.745ZM9.3175 13.95L8.86476 14.1622L8.86586 14.1645L9.3175 13.95ZM9.0175 13.2075V12.7075H8.33022L8.54178 13.3614L9.0175 13.2075ZM26.725 13.2075L27.2015 13.3591L27.4088 12.7075H26.725V13.2075ZM26.305 14.19L26.7421 14.4328L26.7459 14.4258L26.305 14.19ZM25.9 14.7525V15.2525H26.1205L26.2692 15.0896L25.9 14.7525ZM25.8925 14.7525V14.2525H25.673L25.5244 14.4141L25.8925 14.7525ZM24.2725 15.6675L24.1665 15.1788L24.074 15.1989L23.9951 15.2514L24.2725 15.6675ZM24.2142 15.6841L24.1381 15.1899L24.1381 15.1899L24.2142 15.6841ZM26.53 17.0175H26.03V18.2379L26.8863 17.3683L26.53 17.0175ZM27.2875 13.785H27.7875L26.8223 13.6017L27.2875 13.785ZM26.95 14.5275L27.3912 14.7628L27.3945 14.7564L26.95 14.5275ZM26.53 15.135L26.1471 14.8134L26.03 14.9528V15.135H26.53ZM20.4475 12.495L20.1912 12.0656L18.6346 12.995H20.4475V12.495ZM27.085 12.495V12.995H27.2818L27.4258 12.8608L27.085 12.495ZM21.76 11.37V10.87H21.5228L21.3727 11.0537L21.76 11.37ZM28.2925 11.37L28.6333 11.7358L29.5627 10.87H28.2925V11.37ZM22.195 8.16745L22.695 8.16902V8.16745H22.195ZM8.665 12.495L8.32416 12.8608L8.46817 12.995H8.665V12.495ZM15.3025 12.495V12.995H17.1154L15.5588 12.0656L15.3025 12.495ZM7.4575 11.37V10.87H6.18734L7.11666 11.7358L7.4575 11.37ZM13.99 11.37L14.3746 11.0505L14.2247 10.87H13.99V11.37ZM8.4625 13.77L8.92527 13.5806L7.9625 13.77H8.4625ZM9.2275 17.025L8.87126 17.3758L9.7275 18.2452V17.025H9.2275ZM9.2275 15.1125H9.7275V14.9282L9.60792 14.788L9.2275 15.1125ZM8.6725 14.2725L9.12191 14.0532L9.11971 14.0488L8.6725 14.2725ZM8.52023 13.9155L8.98595 13.7335L8.98595 13.7335L8.52023 13.9155ZM26.515 20.955H26.015V21.5267L26.5816 21.4505L26.515 20.955ZM26.53 18.03L26.1793 17.6736L26.03 17.8205V18.03H26.53ZM27.0025 17.565L27.3532 17.9213L27.3561 17.9185L27.0025 17.565ZM27.79 16.3275L28.1012 15.9361L27.5642 15.5091L27.3221 16.151L27.79 16.3275ZM5.8075 7.91995L6.20805 8.21921L6.20857 8.21852L5.8075 7.91995ZM6.8725 5.56495L7.359 5.68039L7.3597 5.67738L6.8725 5.56495ZM5.9425 9.95995L5.59875 10.3231L5.60213 10.3262L5.9425 9.95995ZM6.685 10.65L6.34463 11.0162L6.48854 11.15H6.685V10.65ZM13.4875 10.65V11.15H14.3458L13.9224 10.4033L13.4875 10.65ZM22.255 10.65L21.819 10.4052L21.401 11.15H22.255V10.65ZM29.065 10.65V11.15H29.2615L29.4054 11.0162L29.065 10.65ZM29.8075 9.95995L30.1479 10.3262L30.1512 10.3231L29.8075 9.95995ZM29.9425 7.91995L29.5399 8.21641L29.5419 8.21921L29.9425 7.91995ZM28.8775 5.56495L28.3894 5.67342L28.3901 5.67648L28.8775 5.56495ZM27.4975 4.38745L27.5089 3.88758L27.5086 3.88757L27.4975 4.38745ZM18.73 1.62745L19.0194 1.2197L19.0183 1.21897L18.73 1.62745ZM17.0275 1.62745L16.7392 1.21897L16.7381 1.2197L17.0275 1.62745ZM8.2525 4.38745L8.24139 3.88757L8.24101 3.88758L8.2525 4.38745ZM7.96 16.32L8.42878 16.146L8.19028 15.5031L7.65109 15.9268L7.96 16.32ZM8.7475 17.5575L9.09824 17.201L9.09345 17.1965L8.7475 17.5575ZM9.22 18.0225H9.72V17.813L9.57071 17.6661L9.22 18.0225ZM9.235 20.9475L9.17405 21.4437L9.79474 21.5199L9.73252 20.8977L9.235 20.9475ZM9.94 15.7575L10.1636 15.3102L9.44 14.9484V15.7575H9.94ZM25.81 15.795H26.31V15.295H25.81V15.795ZM25.8025 15.795V15.295H25.6449L25.5158 15.3853L25.8025 15.795ZM25.33 16.0725L25.1064 15.6252L25.1064 15.6252L25.33 16.0725ZM25.3037 16.0837L25.118 15.6195L25.116 15.6203L25.3037 16.0837ZM25.2917 16.0886L25.104 15.6251L25.0997 15.6269L25.2917 16.0886ZM25.2775 16.095L25.4827 16.5509L25.492 16.5467L25.5011 16.5422L25.2775 16.095ZM24.8125 16.275L24.9338 16.76L24.9524 16.7554L24.9706 16.7493L24.8125 16.275ZM24.7675 16.2899L24.9357 16.7609L24.9431 16.7581L24.7675 16.2899ZM24.7675 16.29L24.9256 16.7644L24.9357 16.7608L24.7675 16.29ZM24.7675 16.29L24.6094 15.8156L24.6006 15.8185L24.5919 15.8218L24.7675 16.29ZM24.7225 16.305L24.6012 15.8199L24.59 15.8227L24.5788 15.826L24.7225 16.305ZM24.265 16.41L24.1714 15.9188L24.1669 15.9197L24.265 16.41ZM24.1525 16.4325L24.2315 16.9262L24.2411 16.9246L24.2506 16.9227L24.1525 16.4325ZM11.6125 16.4325L11.6915 15.9387L11.6796 15.9368L11.6677 15.9355L11.6125 16.4325ZM11.425 16.395L11.5463 15.9098L11.5395 15.9082L11.425 16.395ZM11.3064 16.3685L11.1851 16.8536L11.1927 16.8555L11.2003 16.8571L11.3064 16.3685ZM11.3063 16.3685L11.4276 15.8834L11.42 15.8815L11.4124 15.8798L11.3063 16.3685ZM11.05 16.305L11.1991 15.8277L11.1937 15.826L11.05 16.305ZM10.8822 16.2426L11.0715 15.7799L11.0703 15.7794L10.8822 16.2426ZM10.8325 16.2225L11.0206 15.7592L11.0107 15.7552L11.0007 15.7516L10.8325 16.2225ZM10.5175 16.095L10.2939 16.5422L10.307 16.5487L10.3205 16.5545L10.5175 16.095ZM10.4087 16.0349L10.6593 15.6022L10.6593 15.6022L10.4087 16.0349ZM10.3 15.975L10.063 16.4152L10.0696 16.4188L10.0764 16.4222L10.3 15.975ZM10.0225 15.81L9.7225 16.21L9.7336 16.2183L9.74515 16.226L10.0225 15.81ZM21.9925 28.3425H22.4925V27.5043L21.755 27.9025L21.9925 28.3425ZM21.9925 29.49L22.3157 29.8715L22.4925 29.7217V29.49H21.9925ZM17.875 32.9775L17.5519 33.359L17.8751 33.6327L18.1982 33.359L17.875 32.9775ZM13.765 29.4975H13.265V29.7293L13.4419 29.879L13.765 29.4975ZM13.765 28.3425L14.0046 27.9036L13.265 27.4998V28.3425H13.765ZM5.3125 33.3825L5.12247 32.92L5.1219 32.9202L5.3125 33.3825ZM2.6725 46.6424H2.1725V47.1424H2.6725V46.6424ZM32.11 46.6424V47.1424H32.61V46.6424H32.11ZM31.9 37.4249L32.3248 37.1613L32.3227 37.158L31.9 37.4249ZM31.18 36.285L31.6027 36.018L31.6018 36.0165L31.18 36.285ZM30.8575 33.6225H31.3575V33.2937L31.0556 33.1634L30.8575 33.6225ZM24.9025 31.125L25.0946 30.6633L24.6381 30.4734L24.4431 30.9277L24.9025 31.125ZM23.2375 35.0024L23.6964 35.2011L23.6969 35.1997L23.2375 35.0024ZM22.0825 36.0224L22.2141 36.5049L22.2217 36.5027L22.0825 36.0224ZM20.5675 35.7675L20.2825 36.1783L20.2855 36.1804L20.5675 35.7675ZM20.1025 35.445L20.3875 35.0341L20.0443 34.7961L19.7489 35.0914L20.1025 35.445ZM19.48 36.0675L19.1264 35.7139L18.9462 35.8941L18.9862 36.1459L19.48 36.0675ZM20.635 43.3425L20.141 43.4209L20.1436 43.4346L20.635 43.3425ZM20.5225 43.665L20.8571 44.0365L20.8604 44.0335L20.5225 43.665ZM18.1075 45.84L18.4397 46.2137L18.4421 46.2115L18.1075 45.84ZM17.6275 45.84L17.2935 46.212L17.2953 46.2136L17.6275 45.84ZM15.205 43.665L14.8671 44.0335L14.871 44.037L15.205 43.665ZM15.0925 43.3425L15.5841 43.4346L15.5863 43.4209L15.0925 43.3425ZM16.2475 36.0675L16.7413 36.1459L16.7813 35.8941L16.6011 35.7139L16.2475 36.0675ZM15.625 35.445L15.9786 35.0914L15.6832 34.7961L15.34 35.0341L15.625 35.445ZM15.16 35.7675L15.442 36.1804L15.445 36.1783L15.16 35.7675ZM13.645 36.0224L13.5058 36.5027L13.5134 36.5048L13.645 36.0224ZM12.49 35.0024L12.9503 34.8072L12.9496 34.8055L12.49 35.0024ZM10.825 31.1175L11.2846 30.9205L11.0906 30.4678L10.635 30.655L10.825 31.1175ZM46.3975 47.1425H48.64V46.1425H46.3975V47.1425ZM45.8975 38.1525V46.6425H46.8975V38.1525H45.8975ZM46.1827 37.1613C46.0002 37.4552 45.8975 37.8011 45.8975 38.1525H46.8975C46.8975 37.9938 46.9448 37.8297 47.0323 37.6886L46.1827 37.1613ZM46.9048 36.018L46.1848 37.158L47.0302 37.6919L47.7502 36.5519L46.9048 36.018ZM47.15 35.1749C47.15 35.4706 47.0642 35.7674 46.9057 36.0165L47.7493 36.5534C48.0108 36.1425 48.15 35.6593 48.15 35.1749H47.15ZM47.15 26.0775V35.1749H48.15V26.0775H47.15ZM45.6157 24.4997C46.4676 24.5283 47.15 25.2258 47.15 26.0775H48.15C48.15 24.6791 47.0324 23.5466 45.6493 23.5002L45.6157 24.4997ZM45.1325 18.12V24H46.1325V18.12H45.1325ZM44.4925 17.48C44.8464 17.48 45.1325 17.7661 45.1325 18.12H46.1325C46.1325 17.2138 45.3986 16.48 44.4925 16.48V17.48ZM43.8525 18.12C43.8525 17.7661 44.1386 17.48 44.4925 17.48V16.48C43.5864 16.48 42.8525 17.2138 42.8525 18.12H43.8525ZM43.8525 24V18.12H42.8525V24H43.8525ZM40.18 24.5H43.3525V23.5H40.18V24.5ZM39.68 22.905V24H40.68V22.905H39.68ZM40.36 22.405H40.18V23.405H40.36V22.405ZM40.22 22.545C40.22 22.4646 40.2857 22.405 40.36 22.405V23.405C40.8243 23.405 41.22 23.0303 41.22 22.545H40.22ZM40.22 21.33V22.545H41.22V21.33H40.22ZM40.36 21.47C40.2796 21.47 40.22 21.4043 40.22 21.33H41.22C41.22 20.8656 40.8454 20.47 40.36 20.47V21.47ZM37.9675 21.47H40.36V20.47H37.9675V21.47ZM38.1075 21.33C38.1075 21.4104 38.0418 21.47 37.9675 21.47V20.47C37.5032 20.47 37.1075 20.8445 37.1075 21.33H38.1075ZM38.1075 22.545V21.33H37.1075V22.545H38.1075ZM37.9675 22.405C38.0479 22.405 38.1075 22.4706 38.1075 22.545H37.1075C37.1075 23.0093 37.4821 23.405 37.9675 23.405V22.405ZM38.1475 22.405H37.9675V23.405H38.1475V22.405ZM38.6475 24V22.905H37.6475V24H38.6475ZM36.535 24.5H38.1475V23.5H36.535V24.5ZM36.035 22.905V24H37.035V22.905H36.035ZM36.715 22.405H36.535V23.405H36.715V22.405ZM36.575 22.545C36.575 22.4646 36.6407 22.405 36.715 22.405V23.405C37.1793 23.405 37.575 23.0303 37.575 22.545H36.575ZM36.575 21.33V22.545H37.575V21.33H36.575ZM36.715 21.47C36.6346 21.47 36.575 21.4043 36.575 21.33H37.575C37.575 20.8656 37.2004 20.47 36.715 20.47V21.47ZM34.3225 21.47H36.715V20.47H34.3225V21.47ZM34.4625 21.33C34.4625 21.4103 34.3968 21.47 34.3225 21.47V20.47C33.8582 20.47 33.4625 20.8446 33.4625 21.33H34.4625ZM34.4625 22.545V21.33H33.4625V22.545H34.4625ZM34.3225 22.405C34.4029 22.405 34.4625 22.4706 34.4625 22.545H33.4625C33.4625 23.0093 33.8371 23.405 34.3225 23.405V22.405ZM34.5025 22.405H34.3225V23.405H34.5025V22.405ZM35.0025 24V22.905H34.0025V24H35.0025ZM32.95 24.5H34.5025V23.5H32.95V24.5ZM31.3725 26.0775C31.3725 25.2061 32.0786 24.5 32.95 24.5V23.5C31.5264 23.5 30.3725 24.6538 30.3725 26.0775H31.3725ZM31.3725 32.8425V26.0775H30.3725V32.8425H31.3725ZM24.7181 30.8067C26.9391 31.7296 29.561 32.8233 30.6752 33.3019L31.0698 32.383C29.949 31.9016 27.3209 30.8053 25.1019 29.8832L24.7181 30.8067ZM24.6139 30.7497C24.6194 30.7534 24.6481 30.773 24.6864 30.7922L25.1336 29.8977C25.1569 29.9094 25.1743 29.9215 25.1686 29.9177L24.6139 30.7497ZM24.6006 30.7405L24.6006 30.7406L25.1819 29.9268L25.1818 29.9268L24.6006 30.7405ZM24.6489 30.7697C24.6257 30.7581 24.6083 30.746 24.614 30.7498L25.1685 29.9176C25.1629 29.9139 25.1343 29.8943 25.0961 29.8752L24.6489 30.7697ZM24.8275 30.815C24.8401 30.815 24.8165 30.8156 24.788 30.812C24.7533 30.8077 24.7034 30.7969 24.6489 30.7697L25.0961 29.8752C24.9609 29.8076 24.8299 29.815 24.8275 29.815V30.815ZM23.5891 30.3415C23.9207 30.4788 24.272 30.6243 24.6343 30.7761L25.0207 29.8538C24.6563 29.7011 24.3031 29.5548 23.9718 29.4176L23.5891 30.3415ZM23.5773 30.3364L23.5774 30.3364L23.9836 29.4226L23.9835 29.4226L23.5773 30.3364ZM23.5874 30.3407L23.5883 30.3411L23.9725 29.4178L23.9716 29.4175L23.5874 30.3407ZM22.5252 29.8979C22.8421 30.032 23.2022 30.1812 23.5882 30.3411L23.9709 29.4172C23.5839 29.2569 23.2275 29.1093 22.9148 28.977L22.5252 29.8979ZM22.22 27.9V29.4375H23.22V27.9H22.22ZM25.9805 21.6276C25.7121 24.0572 24.3698 26.178 22.4395 27.486L23.0005 28.3139C25.1652 26.8469 26.6729 24.4677 26.9745 21.7374L25.9805 21.6276ZM29.0225 18.3675C29.0225 19.8417 27.8842 21.0502 26.4314 21.1846L26.5236 22.1803C28.4758 21.9997 30.0225 20.3732 30.0225 18.3675H29.0225ZM27.7003 15.991C28.522 16.5174 29.0225 17.4114 29.0225 18.3675H30.0225C30.0225 17.0585 29.338 15.8525 28.2397 15.1489L27.7003 15.991ZM27.486 15.4067C27.4819 15.4399 27.4772 15.477 27.4731 15.5147L28.4669 15.6252C28.4703 15.5954 28.474 15.565 28.4783 15.5307L27.486 15.4067ZM27.5075 15.165C27.5075 15.2298 27.4994 15.3 27.486 15.4067L28.4783 15.5307C28.4903 15.4348 28.5075 15.3026 28.5075 15.165H27.5075ZM27.5075 12.615V15.165H28.5075V12.615H27.5075ZM29.9617 10.1116L27.6667 12.2491L28.3483 12.9808L30.6433 10.8433L29.9617 10.1116ZM30.1263 7.78341C30.6804 8.52812 30.5896 9.52939 29.9625 10.1108L30.6425 10.8441C31.6654 9.89552 31.7696 8.31679 30.9287 7.18649L30.1263 7.78341ZM29.0961 5.51576C29.2976 6.36225 29.639 7.12263 30.1251 7.78172L30.9299 7.18818C30.531 6.64727 30.2424 6.01265 30.0689 5.28414L29.0961 5.51576ZM27.5011 4.16732C28.2503 4.18435 28.9119 4.72552 29.0956 5.51345L30.0694 5.28645C29.7881 4.07938 28.7547 3.19555 27.5239 3.16758L27.5011 4.16732ZM18.8541 1.45087C20.2376 2.42791 23.1825 4.07462 27.5018 4.16734L27.5232 3.16757C23.4575 3.08029 20.7024 1.53199 19.4309 0.634031L18.8541 1.45087ZM16.8977 1.44959C17.4816 1.0334 18.2684 1.0334 18.8523 1.44959L19.4327 0.635312C18.5016 -0.0285025 17.2484 -0.0285025 16.3173 0.635312L16.8977 1.44959ZM8.24071 4.16734C12.5673 4.07462 15.5123 2.428 16.8959 1.45087L16.3191 0.634031C15.0477 1.5319 12.2927 3.08028 8.21929 3.16757L8.24071 4.16734ZM6.65445 5.51345C6.83834 4.7245 7.50074 4.18428 8.24145 4.16732L8.21855 3.16758C6.99426 3.19562 5.96166 4.0804 5.68055 5.28645L6.65445 5.51345ZM5.62311 7.78414C6.11 7.1322 6.46042 6.36232 6.65493 5.51136L5.68007 5.28854C5.51458 6.01258 5.22 6.6527 4.82189 7.18576L5.62311 7.78414ZM5.78925 10.1125C5.15898 9.52231 5.07045 8.52697 5.62365 7.78341L4.82135 7.18649C3.97955 8.31794 4.08602 9.88759 5.10575 10.8424L5.78925 10.1125ZM8.07637 12.2496L5.78887 10.1121L5.10613 10.8428L7.39363 12.9803L8.07637 12.2496ZM8.235 15.165V12.615H7.235V15.165H8.235ZM8.25645 15.4067C8.24312 15.3 8.235 15.2298 8.235 15.165H7.235C7.235 15.3026 7.25219 15.4349 7.26417 15.5307L8.25645 15.4067ZM8.25646 15.4068L8.25645 15.4067L7.26417 15.5307L7.26419 15.5308L8.25646 15.4068ZM8.26944 15.5147C8.26525 15.477 8.26061 15.4399 8.25646 15.4068L7.26419 15.5308C7.26847 15.5651 7.27225 15.5954 7.27556 15.6252L8.26944 15.5147ZM6.7275 18.3675C6.7275 17.4023 7.2219 16.5165 8.04221 15.991L7.50279 15.1489C6.4031 15.8534 5.7275 17.0526 5.7275 18.3675H6.7275ZM9.32247 21.185C7.85028 21.0371 6.7275 19.833 6.7275 18.3675H5.7275C5.7275 20.3669 7.25972 21.9828 9.22253 22.1799L9.32247 21.185ZM13.3173 27.4931C11.3802 26.1852 10.0379 24.0648 9.76949 21.6277L8.77551 21.7372C9.07708 24.4751 10.5848 26.8547 12.7577 28.3218L13.3173 27.4931ZM13.5375 29.4225V27.9075H12.5375V29.4225H13.5375ZM11.0832 30.7697L13.2282 29.8847L12.8468 28.9602L10.7018 29.8452L11.0832 30.7697ZM11.2236 30.6685C11.1619 30.7302 11.0848 30.7729 11.0025 30.7935C10.937 30.8098 10.8795 30.8075 10.8925 30.8075V29.8075C10.8776 29.8075 10.6794 29.7984 10.5164 29.9614L11.2236 30.6685ZM11.1406 30.7336C11.1072 30.7557 11.0653 30.7774 11.0151 30.793C10.9649 30.8085 10.9157 30.815 10.87 30.815V29.815C10.7642 29.815 10.6678 29.8475 10.5898 29.899L11.1406 30.7336ZM11.1804 30.7045L11.1823 30.7029L10.5481 29.9297L10.5463 29.9313L11.1804 30.7045ZM11.2137 30.6746L11.2145 30.6738L10.5122 29.9619L10.5113 29.9628L11.2137 30.6746ZM10.855 30.8225C11.0786 30.8225 11.2089 30.6794 11.2161 30.6723L10.5089 29.9651C10.5014 29.9727 10.5422 29.9285 10.6022 29.8925C10.6771 29.8476 10.7643 29.8225 10.855 29.8225V30.8225ZM5.2251 33.1774L11.0451 30.7849L10.6649 29.86L4.84489 32.2525L5.2251 33.1774ZM2.4525 37.32C2.4525 35.4972 3.53805 33.8725 5.22547 33.1772L4.84453 32.2526C2.78195 33.1024 1.4525 35.0927 1.4525 37.32H2.4525ZM2.4525 46.6425V37.32H1.4525V46.6425H2.4525ZM1.36 47.1425H1.9525V46.1425H1.36V47.1425ZM1.5 47.0025C1.5 47.0768 1.4404 47.1425 1.36 47.1425V46.1425C0.874598 46.1425 0.5 46.5381 0.5 47.0025H1.5ZM1.36 46.8624C1.4404 46.8624 1.5 46.9281 1.5 47.0025H0.5C0.5 47.4668 0.874605 47.8624 1.36 47.8624V46.8624ZM48.64 46.8624H1.36V47.8624H48.64V46.8624ZM48.5 47.0025C48.5 46.922 48.5657 46.8624 48.64 46.8624V47.8624C49.1043 47.8624 49.5 47.4879 49.5 47.0025H48.5ZM48.64 47.1425C48.6084 47.1425 48.5713 47.129 48.5424 47.1001C48.5135 47.0712 48.5 47.0341 48.5 47.0025H49.5C49.5 46.5238 49.1186 46.1425 48.64 46.1425V47.1425ZM44.4925 17.2075C43.9839 17.2075 43.5725 17.6188 43.5725 18.1275H44.5725C44.5725 18.1711 44.5361 18.2075 44.4925 18.2075V17.2075ZM45.4125 18.1275C45.4125 17.6188 45.0011 17.2075 44.4925 17.2075V18.2075C44.4489 18.2075 44.4125 18.1711 44.4125 18.1275H45.4125ZM45.4125 24V18.1275H44.4125V24H45.4125ZM44.0725 24.5H44.9125V23.5H44.0725V24.5ZM43.5725 18.1275V24H44.5725V18.1275H43.5725ZM38.3275 22.1825H40V21.1825H38.3275V22.1825ZM38.8275 22.1775V21.6825H37.8275V22.1775H38.8275ZM38.5075 21.6775H38.3275V22.6775H38.5075V21.6775ZM39.82 21.6775H38.5075V22.6775H39.82V21.6775ZM40 21.6775H39.82V22.6775H40V21.6775ZM39.5 21.6825V22.1775H40.5V21.6825H39.5ZM39.4675 22.3975H38.8675V23.3975H39.4675V22.3975ZM39.9675 24V22.8975H38.9675V24H39.9675ZM38.8675 24.5H39.4675V23.5H38.8675V24.5ZM38.3675 22.8975V24H39.3675V22.8975H38.3675ZM34.6825 22.1825H36.355V21.1825H34.6825V22.1825ZM35.1825 22.1775V21.6825H34.1825V22.1775H35.1825ZM34.8625 21.6775H34.6825V22.6775H34.8625V21.6775ZM36.175 21.6775H34.8625V22.6775H36.175V21.6775ZM36.355 21.6775H36.175V22.6775H36.355V21.6775ZM35.855 21.6825V22.1775H36.855V21.6825H35.855ZM35.8075 22.3975H35.215V23.3975H35.8075V22.3975ZM36.3075 24V22.8975H35.3075V24H36.3075ZM35.215 24.5H35.8075V23.5H35.215V24.5ZM34.715 22.8975V24H35.715V22.8975H34.715ZM32.085 26.0775C32.085 25.6018 32.4704 25.2125 32.95 25.2125V24.2125C31.9146 24.2125 31.085 25.0531 31.085 26.0775H32.085ZM31.5925 25.5775H31.585V26.5775H31.5925V25.5775ZM32.0925 35.1749V26.0775H31.0925V35.1749H32.0925ZM32.2273 35.6388C32.1398 35.4977 32.0925 35.3336 32.0925 35.1749H31.0925C31.0925 35.5263 31.1952 35.8722 31.3777 36.1661L32.2273 35.6388ZM32.9452 36.7755L32.2252 35.6355L31.3798 36.1694L32.0998 37.3094L32.9452 36.7755ZM33.345 38.1525C33.345 37.6597 33.2053 37.1841 32.9443 36.774L32.1007 37.3109C32.2597 37.5608 32.345 37.8502 32.345 38.1525H33.345ZM33.345 46.4925V38.1525H32.345V46.4925H33.345ZM45.6775 45.9925H32.845V46.9925H45.6775V45.9925ZM45.1775 38.1525V46.4925H46.1775V38.1525H45.1775ZM45.5782 36.774C45.3167 37.1849 45.1775 37.6681 45.1775 38.1525H46.1775C46.1775 37.8568 46.2633 37.56 46.4218 37.3109L45.5782 36.774ZM46.2973 35.6355L45.5773 36.7755L46.4227 37.3094L47.1427 36.1694L46.2973 35.6355ZM46.43 35.1749C46.43 35.3336 46.3827 35.4977 46.2952 35.6388L47.1448 36.1661C47.3273 35.8722 47.43 35.5263 47.43 35.1749H46.43ZM46.43 26.0775V35.1749H47.43V26.0775H46.43ZM45.5725 25.2125C46.0446 25.2125 46.43 25.5943 46.43 26.0775H47.43C47.43 25.0456 46.6004 24.2125 45.5725 24.2125V25.2125ZM45.2725 25.2125H45.5725V24.2125H45.2725V25.2125ZM43.7125 25.2125H45.2725V24.2125H43.7125V25.2125ZM39.82 25.2125H43.7125V24.2125H39.82V25.2125ZM38.5075 25.2125H39.82V24.2125H38.5075V25.2125ZM36.175 25.2125H38.5075V24.2125H36.175V25.2125ZM34.8625 25.2125H36.175V24.2125H34.8625V25.2125ZM32.95 25.2125H34.8625V24.2125H32.95V25.2125ZM23.0521 34.9143L24.7096 31.0443L23.7904 30.6506L22.1329 34.5206L23.0521 34.9143ZM22.0429 35.8048C22.4877 35.6746 22.864 35.357 23.0527 34.913L22.1323 34.5219C22.066 34.6779 21.9323 34.7953 21.7621 34.8451L22.0429 35.8048ZM20.7044 35.5818C21.0957 35.8613 21.5928 35.9366 22.0429 35.8048L21.7621 34.8451C21.5972 34.8933 21.4193 34.8636 21.2856 34.7681L20.7044 35.5818ZM18.6395 34.1454L20.7095 35.5854L21.2805 34.7645L19.2105 33.3245L18.6395 34.1454ZM18.184 33.8318L18.6415 34.1468L19.2086 33.3231L18.7511 33.0081L18.184 33.8318ZM22.0891 29.6936L18.1441 33.0386L18.7909 33.8013L22.7359 30.4563L22.0891 29.6936ZM23.6194 30.0406C23.2702 29.8948 22.9325 29.7538 22.6095 29.6154L22.2155 30.5345C22.5436 30.6751 22.8857 30.818 23.2341 30.9634L23.6194 30.0406ZM24.445 30.387C24.1655 30.2687 23.8891 30.1533 23.6194 30.0406L23.2341 30.9634C23.5042 31.0762 23.7783 31.1907 24.055 31.3079L24.445 30.387ZM19.1639 34.6714L18.6089 35.2264L19.3161 35.9335L19.8711 35.3785L19.1639 34.6714ZM17.9958 34.5813L19.2333 35.4363L19.8017 34.6136L18.5642 33.7586L17.9958 34.5813ZM17.5833 34.2963L17.9958 34.5813L18.5642 33.7586L18.1517 33.4736L17.5833 34.2963ZM17.0954 35.0305L18.1529 34.2955L17.5821 33.4744L16.5246 34.2094L17.0954 35.0305ZM16.5096 35.436L17.0946 35.031L16.5254 34.2089L15.9404 34.6139L16.5096 35.436ZM17.1336 35.2264L16.5786 34.6714L15.8714 35.3785L16.4264 35.9335L17.1336 35.2264ZM18.9625 35.08H16.78V36.08H18.9625V35.08ZM16.4512 36.2217L15.3487 43.1817L16.3363 43.3382L17.4388 36.3782L16.4512 36.2217ZM18.805 35.7999H16.945V36.7999H18.805V35.7999ZM20.4013 43.1817L19.2988 36.2217L18.3112 36.3782L19.4137 43.3382L20.4013 43.1817ZM18.2096 45.4615L20.2421 43.6315L19.5729 42.8884L17.5404 44.7184L18.2096 45.4615ZM15.5079 43.6315L17.5404 45.4615L18.2096 44.7184L16.1771 42.8884L15.5079 43.6315ZM14.4644 34.7681C14.3307 34.8636 14.1528 34.8933 13.9879 34.8451L13.7071 35.8048C14.1572 35.9366 14.6543 35.8613 15.0456 35.5818L14.4644 34.7681ZM15.3503 34.1622L14.4728 34.7622L15.0372 35.5877L15.9147 34.9877L15.3503 34.1622ZM17.0054 33.0164L15.3479 34.1639L15.9171 34.986L17.5746 33.8385L17.0054 33.0164ZM13.0221 30.4717L16.9671 33.8092L17.6129 33.0457L13.6679 29.7082L13.0221 30.4717ZM11.6899 31.31L13.5349 30.5525L13.1551 29.6274L11.3101 30.3849L11.6899 31.31ZM13.6171 34.5206L11.9596 30.6506L11.0404 31.0443L12.6979 34.9143L13.6171 34.5206ZM13.9849 34.8442C13.8185 34.7966 13.6858 34.6781 13.6158 34.5177L12.6992 34.9172C12.8842 35.3418 13.2465 35.6733 13.7101 35.8057L13.9849 34.8442ZM23.575 16.25C23.8209 16.25 24.0552 16.2236 24.2769 16.181L24.0881 15.1989C23.9198 15.2313 23.7491 15.25 23.575 15.25V16.25ZM12.1825 16.25H23.575V15.25H12.1825V16.25ZM11.5031 16.181C11.722 16.2231 11.9492 16.25 12.1825 16.25V15.25C12.0258 15.25 11.863 15.2318 11.6919 15.1989L11.5031 16.181ZM11.4101 16.1621C11.4319 16.1672 11.4763 16.1777 11.5268 16.1849L11.6682 15.195C11.6682 15.195 11.6663 15.1947 11.6609 15.1936C11.6548 15.1923 11.648 15.1908 11.6349 15.1878L11.4101 16.1621ZM11.433 16.1669L11.4331 16.1669L11.6119 15.183L11.6119 15.183L11.433 16.1669ZM11.433 16.1669L11.433 16.1669L11.6119 15.183L11.6119 15.183L11.433 16.1669ZM11.433 16.1669L11.433 16.1669L11.6119 15.183L11.6118 15.183L11.433 16.1669ZM11.4329 16.1669L11.433 16.1669L11.6118 15.183L11.6118 15.183L11.4329 16.1669ZM11.4329 16.1669L11.4329 16.1669L11.6118 15.183L11.6118 15.183L11.4329 16.1669ZM11.4329 16.1669L11.4329 16.1669L11.6118 15.183L11.6118 15.183L11.4329 16.1669ZM11.4328 16.1668L11.4329 16.1669L11.6118 15.183L11.6117 15.183L11.4328 16.1668ZM11.4328 16.1668L11.4328 16.1668L11.6117 15.183L11.6117 15.183L11.4328 16.1668ZM11.4328 16.1668L11.4328 16.1668L11.6117 15.183L11.6117 15.183L11.4328 16.1668ZM11.4327 16.1668L11.4328 16.1668L11.6117 15.183L11.6116 15.183L11.4327 16.1668ZM11.4327 16.1668L11.4327 16.1668L11.6116 15.183L11.6116 15.183L11.4327 16.1668ZM11.3769 16.1549C11.3767 16.1549 11.3786 16.1552 11.3839 16.1563C11.3899 16.1575 11.3966 16.1591 11.4096 16.1621L11.6347 15.1877C11.613 15.1827 11.5686 15.1722 11.5181 15.165L11.3769 16.1549ZM10.7555 15.962C10.9432 16.0424 11.1386 16.1045 11.3413 16.1485L11.5537 15.1714C11.4114 15.1404 11.2768 15.0975 11.1495 15.0429L10.7555 15.962ZM10.7368 15.9554C10.7456 15.9589 10.7675 15.9678 10.7944 15.9768L11.1106 15.0281C11.115 15.0296 11.1182 15.031 11.1082 15.027L10.7368 15.9554ZM10.7302 15.9527L10.7302 15.9527L11.1148 15.0297L11.1148 15.0296L10.7302 15.9527ZM10.7344 15.9543C10.73 15.9528 10.7268 15.9515 10.7368 15.9554L11.1081 15.0269C11.0994 15.0234 11.0775 15.0146 11.0506 15.0056L10.7344 15.9543ZM10.0994 15.6018C10.2852 15.7346 10.4883 15.8494 10.6931 15.9385L11.0919 15.0214C10.9517 14.9605 10.8098 14.8804 10.6806 14.7881L10.0994 15.6018ZM9.96515 15.5029C9.9964 15.5279 10.061 15.5806 10.1327 15.6237L10.6473 14.7662C10.6486 14.767 10.6448 14.7648 10.6338 14.7565C10.6223 14.7479 10.6097 14.7379 10.5899 14.722L9.96515 15.5029ZM9.50149 15.0883C9.64908 15.2445 9.80543 15.3834 9.9775 15.5125L10.5775 14.7125C10.4496 14.6165 10.3359 14.5154 10.2285 14.4016L9.50149 15.0883ZM8.86586 14.1645C9.03317 14.5167 9.25173 14.8213 9.49986 15.0865L10.2301 14.4034C10.0433 14.2036 9.88683 13.9832 9.76914 13.7354L8.86586 14.1645ZM8.54178 13.3614C8.63306 13.6435 8.74736 13.9117 8.86477 14.1622L9.77023 13.7377C9.66264 13.5082 9.56694 13.2814 9.49322 13.0535L8.54178 13.3614ZM26.725 12.7075H9.0175V13.7075H26.725V12.7075ZM26.7459 14.4258C26.9311 14.0796 27.0862 13.7214 27.2015 13.3591L26.2485 13.0559C26.1538 13.3535 26.0239 13.6553 25.8641 13.9541L26.7459 14.4258ZM26.2692 15.0896C26.4527 14.8886 26.6105 14.6695 26.7421 14.4328L25.8679 13.9471C25.7745 14.1154 25.6623 14.2713 25.5308 14.4153L26.2692 15.0896ZM25.8925 15.2525H25.9V14.2525H25.8925V15.2525ZM24.3785 16.1561C25.0957 16.0006 25.7592 15.6362 26.2606 15.0909L25.5244 14.4141C25.1708 14.7987 24.6943 15.0644 24.1665 15.1788L24.3785 16.1561ZM24.2902 16.1783C24.2961 16.1774 24.3306 16.1725 24.3671 16.1634C24.4034 16.1543 24.4748 16.1335 24.5499 16.0835L23.9951 15.2514C24.0552 15.2114 24.1082 15.1973 24.1246 15.1932C24.141 15.1891 24.1539 15.1875 24.1381 15.1899L24.2902 16.1783ZM24.3037 16.175C24.2935 16.1776 24.2864 16.1789 24.2849 16.1791C24.284 16.1793 24.2838 16.1793 24.2848 16.1791C24.2859 16.179 24.2873 16.1788 24.2902 16.1783L24.1381 15.1899C24.1321 15.1909 24.0977 15.1958 24.0613 15.2049L24.3037 16.175ZM26.7875 15.1725C26.7875 15.7298 26.5626 16.2717 26.1737 16.6667L26.8863 17.3683C27.4574 16.7882 27.7875 15.9951 27.7875 15.1725H26.7875ZM26.7875 13.785V15.1725H27.7875V13.785H26.7875ZM27.3945 14.7564C27.5293 14.4947 27.6488 14.232 27.7527 13.9682L26.8223 13.6017C26.7312 13.8329 26.6257 14.0652 26.5055 14.2985L27.3945 14.7564ZM26.9129 15.4565C27.0848 15.2518 27.2499 15.0277 27.3912 14.7627L26.5088 14.2922C26.4101 14.4772 26.2902 14.6431 26.1471 14.8134L26.9129 15.4565ZM27.03 17.0175V15.135H26.03V17.0175H27.03ZM20.4475 12.995H27.085V11.995H20.4475V12.995ZM21.3727 11.0537C21.044 11.4562 20.6467 11.7937 20.1912 12.0656L20.7038 12.9243C21.2533 12.5962 21.741 12.1837 22.1473 11.6862L21.3727 11.0537ZM28.2925 10.87H21.76V11.87H28.2925V10.87ZM27.4258 12.8608L28.6333 11.7358L27.9517 11.0041L26.7442 12.1291L27.4258 12.8608ZM17.875 11.9875C15.7742 11.9875 14.0625 10.2769 14.0625 8.16745H13.0625C13.0625 10.828 15.2208 12.9875 17.875 12.9875V11.9875ZM21.695 8.16588C21.6884 10.2768 19.9755 11.9875 17.875 11.9875V12.9875C20.5295 12.9875 22.6866 10.8281 22.695 8.16902L21.695 8.16588ZM17.875 4.35495C19.9775 4.35495 21.695 6.06722 21.695 8.16745H22.695C22.695 5.51268 20.5275 3.35495 17.875 3.35495V4.35495ZM14.0625 8.16745C14.0625 6.06609 15.7736 4.35495 17.875 4.35495V3.35495C15.2214 3.35495 13.0625 5.51381 13.0625 8.16745H14.0625ZM8.665 12.995H15.3025V11.995H8.665V12.995ZM7.11666 11.7358L8.32416 12.8608L9.00584 12.1291L7.79834 11.0041L7.11666 11.7358ZM13.99 10.87H7.4575V11.87H13.99V10.87ZM15.5588 12.0656C15.106 11.7953 14.7066 11.4503 14.3746 11.0505L13.6054 11.6894C14.0084 12.1746 14.494 12.5946 15.0462 12.9243L15.5588 12.0656ZM8.9625 15.1725V13.77H7.9625V15.1725H8.9625ZM9.58374 16.6741C9.18665 16.2709 8.9625 15.7287 8.9625 15.1725H7.9625C7.9625 15.9962 8.29335 16.789 8.87126 17.3758L9.58374 16.6741ZM8.7275 15.1125V17.025H9.7275V15.1125H8.7275ZM8.22312 14.4917C8.39343 14.8408 8.60513 15.1533 8.84708 15.4369L9.60792 14.788C9.41487 14.5616 9.25157 14.3191 9.12188 14.0532L8.22312 14.4917ZM8.05452 14.0974C8.09978 14.2133 8.15491 14.3553 8.22529 14.4961L9.11971 14.0488C9.07308 13.9556 9.03383 13.8561 8.98595 13.7335L8.05452 14.0974ZM7.99973 13.9593C8.01761 14.003 8.03517 14.0479 8.05452 14.0974L8.98595 13.7335C8.9671 13.6852 8.94666 13.6329 8.92527 13.5806L7.99973 13.9593ZM26.5816 21.4505C28.1037 21.2458 29.295 19.9539 29.295 18.3675H28.295C28.295 19.436 27.4913 20.3191 26.4483 20.4594L26.5816 21.4505ZM26.025 20.7927C26.0217 20.8259 26.015 20.8883 26.015 20.955H27.015C27.015 20.9466 27.0158 20.934 27.02 20.8922L26.025 20.7927ZM26.03 20.7299C26.03 20.7383 26.0292 20.7509 26.025 20.7927L27.02 20.8922C27.0233 20.859 27.03 20.7966 27.03 20.7299H26.03ZM26.03 18.03V20.7299H27.03V18.03H26.03ZM26.6518 17.2086L26.1793 17.6736L26.8807 18.3863L27.3532 17.9213L26.6518 17.2086ZM27.3221 16.151C27.1722 16.5488 26.9463 16.914 26.6489 17.2114L27.3561 17.9185C27.7637 17.5109 28.0628 17.0211 28.2578 16.5039L27.3221 16.151ZM29.295 18.3675C29.295 17.403 28.8353 16.5199 28.1012 15.9361L27.4788 16.7188C27.9897 17.125 28.295 17.7269 28.295 18.3675H29.295ZM6.20857 8.21852C6.75706 7.48175 7.13549 6.62231 7.35899 5.68039L6.38601 5.44951C6.18951 6.2776 5.86294 7.00816 5.40643 7.62138L6.20857 8.21852ZM6.28624 9.59685C5.91971 9.24987 5.86251 8.68171 6.20805 8.21921L5.40695 7.62069C4.77749 8.4632 4.84029 9.60503 5.59876 10.3231L6.28624 9.59685ZM7.02537 10.2837L6.28287 9.59369L5.60213 10.3262L6.34463 11.0162L7.02537 10.2837ZM13.4875 10.15H6.685V11.15H13.4875V10.15ZM12.335 8.17495C12.335 9.16449 12.599 10.0966 13.0526 10.8966L13.9224 10.4033C13.551 9.7483 13.335 8.98541 13.335 8.17495H12.335ZM17.8675 2.64245C14.8164 2.64245 12.335 5.12381 12.335 8.17495H13.335C13.335 5.67609 15.3686 3.64245 17.8675 3.64245V2.64245ZM23.4075 8.17495C23.4075 5.12332 20.9257 2.64245 17.8675 2.64245V3.64245C20.3743 3.64245 22.4075 5.67658 22.4075 8.17495H23.4075ZM22.691 10.8947C23.143 10.0894 23.4075 9.16561 23.4075 8.17495H22.4075C22.4075 8.9843 22.192 9.74054 21.819 10.4052L22.691 10.8947ZM29.065 10.15H22.255V11.15H29.065V10.15ZM29.4671 9.59369L28.7246 10.2837L29.4054 11.0162L30.1479 10.3262L29.4671 9.59369ZM29.5419 8.21921C29.8875 8.68171 29.8303 9.24987 29.4638 9.59685L30.1512 10.3231C30.9097 9.60503 30.9725 8.46319 30.3431 7.62069L29.5419 8.21921ZM28.3901 5.67648C28.6073 6.62555 28.9951 7.47651 29.5399 8.2164L30.3451 7.6235C29.8849 6.99839 29.5527 6.27436 29.3649 5.45343L28.3901 5.67648ZM27.4861 4.88732C27.9 4.89673 28.2857 5.20689 28.3894 5.67342L29.3656 5.45649C29.1693 4.57301 28.415 3.90818 27.5089 3.88758L27.4861 4.88732ZM18.4406 2.0352C19.8923 3.0654 22.9724 4.78702 27.4864 4.88733L27.5086 3.88757C23.2476 3.79289 20.3577 2.16951 19.0194 1.2197L18.4406 2.0352ZM17.3158 2.03594C17.653 1.79796 18.1045 1.79796 18.4417 2.03593L19.0183 1.21897C18.3355 0.736945 17.422 0.736946 16.7392 1.21897L17.3158 2.03594ZM8.26361 4.88733C12.7774 4.78702 15.865 3.06559 17.3169 2.0352L16.7381 1.2197C15.4 2.16931 12.5026 3.79288 8.24139 3.88757L8.26361 4.88733ZM7.3597 5.67738C7.46985 5.20006 7.85746 4.89666 8.26399 4.88732L8.24101 3.88758C7.34254 3.90824 6.59015 4.56484 6.3853 5.45252L7.3597 5.67738ZM7.65109 15.9268C6.90388 16.5139 6.455 17.4072 6.455 18.3675H7.455C7.455 17.7227 7.75612 17.116 8.26891 16.7131L7.65109 15.9268ZM9.09345 17.1965C8.79815 16.9135 8.58037 16.5547 8.42878 16.146L7.49122 16.4939C7.68463 17.0152 7.97685 17.5114 8.40155 17.9184L9.09345 17.1965ZM9.57071 17.6661L9.09821 17.2011L8.39679 17.9138L8.86929 18.3788L9.57071 17.6661ZM9.72 20.7225V18.0225H8.72V20.7225H9.72ZM9.73252 20.8977C9.72459 20.8184 9.72 20.7683 9.72 20.7225H8.72C8.72 20.8266 8.73041 20.9265 8.73748 20.9972L9.73252 20.8977ZM6.455 18.3675C6.455 19.9595 7.6453 21.256 9.17405 21.4437L9.29595 20.4512C8.2597 20.3239 7.455 19.4454 7.455 18.3675H6.455ZM10.44 20.7299V15.7575H9.44V20.7299H10.44ZM17.875 28.18C13.7724 28.18 10.44 24.835 10.44 20.7299H9.44C9.44 25.3849 13.2176 29.18 17.875 29.18V28.18ZM25.31 20.745C25.31 24.8416 21.9785 28.18 17.875 28.18V29.18C22.5314 29.18 26.31 25.3933 26.31 20.745H25.31ZM25.31 15.795V20.745H26.31V15.795H25.31ZM25.8025 16.295H25.81V15.295H25.8025V16.295ZM25.5536 16.5197C25.7348 16.4291 25.9145 16.3269 26.0892 16.2046L25.5158 15.3853C25.3905 15.473 25.2552 15.5508 25.1064 15.6252L25.5536 16.5197ZM25.4894 16.5479C25.493 16.5465 25.5236 16.5346 25.5536 16.5197L25.1064 15.6252C25.1118 15.6225 25.116 15.6206 25.1186 15.6194C25.1212 15.6182 25.123 15.6175 25.1235 15.6173C25.1241 15.617 25.1241 15.617 25.123 15.6175C25.1219 15.6179 25.1206 15.6185 25.118 15.6195L25.4894 16.5479ZM25.4794 16.552L25.4915 16.5471L25.116 15.6203L25.104 15.6252L25.4794 16.552ZM25.5011 16.5422C25.495 16.5452 25.4904 16.5473 25.4879 16.5484C25.4853 16.5496 25.4837 16.5502 25.4837 16.5503L25.0997 15.6269C25.0905 15.6307 25.0734 15.638 25.0539 15.6477L25.5011 16.5422ZM24.9706 16.7493C25.1413 16.6924 25.3148 16.6265 25.4827 16.5509L25.0723 15.639C24.9402 15.6984 24.7987 15.7525 24.6544 15.8006L24.9706 16.7493ZM24.9431 16.7581C24.9471 16.7566 24.9492 16.7558 24.9511 16.7551C24.9528 16.7545 24.9531 16.7544 24.9526 16.7546C24.9518 16.7549 24.9448 16.7573 24.9338 16.76L24.6912 15.7899C24.6438 15.8017 24.6018 15.8181 24.592 15.8218L24.9431 16.7581ZM24.9357 16.7608L24.9357 16.7608L24.5994 15.8191L24.5993 15.8191L24.9357 16.7608ZM24.9256 16.7643L24.9256 16.7643L24.6094 15.8156L24.6094 15.8156L24.9256 16.7643ZM24.8438 16.79C24.8912 16.7782 24.9332 16.7618 24.943 16.7581L24.5919 15.8218C24.5879 15.8233 24.5858 15.8241 24.5839 15.8248C24.5822 15.8254 24.5819 15.8255 24.5825 15.8253C24.5832 15.825 24.5903 15.8226 24.6012 15.8199L24.8438 16.79ZM24.3586 16.9011C24.5162 16.8711 24.6889 16.837 24.8662 16.7839L24.5788 15.826C24.4561 15.8629 24.3288 15.8888 24.1714 15.9188L24.3586 16.9011ZM24.2506 16.9227L24.3631 16.9002L24.1669 15.9197L24.0544 15.9422L24.2506 16.9227ZM23.575 16.9775C23.7952 16.9775 24.0167 16.9605 24.2315 16.9262L24.0735 15.9387C23.9133 15.9644 23.7448 15.9775 23.575 15.9775V16.9775ZM12.19 16.9775H23.575V15.9775H12.19V16.9775ZM11.5335 16.9262C11.7483 16.9605 11.9698 16.9775 12.19 16.9775V15.9775C12.0202 15.9775 11.8517 15.9644 11.6915 15.9387L11.5335 16.9262ZM11.3037 16.88C11.3605 16.8942 11.4516 16.9177 11.5573 16.9294L11.6677 15.9355C11.6384 15.9323 11.6095 15.9257 11.5463 15.9099L11.3037 16.88ZM11.2003 16.8571C11.2404 16.8658 11.2758 16.8735 11.3105 16.8817L11.5395 15.9082C11.495 15.8978 11.4511 15.8883 11.4124 15.8799L11.2003 16.8571ZM11.1851 16.8535L11.1851 16.8536L11.4276 15.8834L11.4276 15.8834L11.1851 16.8535ZM10.9009 16.7822C11.0085 16.8158 11.117 16.839 11.2003 16.8571L11.4124 15.8798C11.321 15.86 11.2569 15.8458 11.1991 15.8277L10.9009 16.7822ZM10.6928 16.7054C10.7457 16.727 10.8213 16.7583 10.9063 16.7839L11.1937 15.826C11.1625 15.8167 11.1309 15.8041 11.0715 15.7799L10.6928 16.7054ZM10.6444 16.6857L10.694 16.7059L11.0703 15.7794L11.0206 15.7592L10.6444 16.6857ZM10.3205 16.5545C10.4229 16.5984 10.5422 16.6497 10.6643 16.6933L11.0007 15.7516C10.9128 15.7202 10.8221 15.6815 10.7145 15.6354L10.3205 16.5545ZM10.1582 16.4677C10.1918 16.4871 10.2405 16.5155 10.2939 16.5422L10.7411 15.6477C10.7195 15.6369 10.6969 15.624 10.6593 15.6022L10.1582 16.4677ZM10.0764 16.4222C10.098 16.433 10.1206 16.4459 10.1582 16.4677L10.6593 15.6022C10.6257 15.5828 10.577 15.5544 10.5236 15.5277L10.0764 16.4222ZM9.74515 16.226C9.85159 16.2969 9.95578 16.3575 10.063 16.4152L10.537 15.5347C10.4492 15.4874 10.3734 15.443 10.2999 15.3939L9.74515 16.226ZM9.71639 16.2047C9.7164 16.2047 9.71616 16.2046 9.71572 16.2043C9.71528 16.2041 9.71472 16.2038 9.71407 16.2034C9.71266 16.2026 9.71152 16.2019 9.71087 16.2015C9.70993 16.2009 9.71244 16.2024 9.7225 16.21L10.3225 15.4099C10.2789 15.3773 10.23 15.3434 10.1636 15.3102L9.71639 16.2047ZM21.755 27.9025C20.6023 28.5248 19.2811 28.885 17.875 28.885V29.885C19.4539 29.885 20.9377 29.4801 22.23 28.7824L21.755 27.9025ZM22.4925 29.49V28.3425H21.4925V29.49H22.4925ZM18.1982 33.359L22.3157 29.8715L21.6693 29.1084L17.5518 32.5959L18.1982 33.359ZM13.4419 29.879L17.5519 33.359L18.1981 32.5959L14.0881 29.1159L13.4419 29.879ZM13.265 28.3425V29.4975H14.265V28.3425H13.265ZM17.875 28.885C16.475 28.885 15.1547 28.5316 14.0046 27.9036L13.5254 28.7813C14.8203 29.4883 16.305 29.885 17.875 29.885V28.885ZM3.1725 37.32C3.1725 35.8202 4.10758 34.4201 5.5031 33.8447L5.1219 32.9202C3.35242 33.6498 2.1725 35.4147 2.1725 37.32H3.1725ZM3.1725 46.6424V37.32H2.1725V46.6424H3.1725ZM32.11 46.1424H2.6725V47.1424H32.11V46.1424ZM31.61 38.1525V46.6424H32.61V38.1525H31.61ZM31.4752 37.6886C31.5627 37.8297 31.61 37.9938 31.61 38.1525H32.61C32.61 37.8011 32.5073 37.4552 32.3248 37.1613L31.4752 37.6886ZM30.7573 36.5519L31.4773 37.6919L32.3227 37.158L31.6027 36.018L30.7573 36.5519ZM30.3575 35.1749C30.3575 35.6677 30.4972 36.1433 30.7582 36.5534L31.6018 36.0165C31.4428 35.7666 31.3575 35.4772 31.3575 35.1749H30.3575ZM30.3575 33.6225V35.1749H31.3575V33.6225H30.3575ZM24.7104 31.5866C27.3064 32.667 29.9505 33.7756 30.6594 34.0815L31.0556 33.1634C30.3395 32.8543 27.6886 31.7429 25.0946 30.6633L24.7104 31.5866ZM23.6969 35.1997L25.3619 31.3222L24.4431 30.9277L22.7781 34.8052L23.6969 35.1997ZM22.2217 36.5027C22.8824 36.3112 23.4196 35.8404 23.6964 35.2011L22.7786 34.8038C22.6204 35.1695 22.3176 35.4337 21.9433 35.5422L22.2217 36.5027ZM21.5875 36.59C21.7985 36.59 22.0078 36.5611 22.2141 36.5048L21.9509 35.5401C21.8272 35.5738 21.7065 35.59 21.5875 35.59V36.59ZM20.2855 36.1804C20.6718 36.4442 21.1218 36.59 21.5875 36.59V35.59C21.3332 35.59 21.0782 35.5107 20.8495 35.3546L20.2855 36.1804ZM19.8176 35.8558L20.2826 36.1783L20.8525 35.3566L20.3875 35.0341L19.8176 35.8558ZM19.8336 36.421L20.4561 35.7985L19.7489 35.0914L19.1264 35.7139L19.8336 36.421ZM21.1288 43.2641L19.9738 35.9891L18.9862 36.1459L20.1412 43.4209L21.1288 43.2641ZM20.8604 44.0335C21.0661 43.8449 21.1836 43.555 21.1264 43.2503L20.1436 43.4346C20.1314 43.3699 20.1589 43.32 20.1846 43.2964L20.8604 44.0335ZM18.4421 46.2115L20.8571 44.0365L20.1879 43.2934L17.7729 45.4684L18.4421 46.2115ZM17.8675 46.43C18.0748 46.43 18.2769 46.3583 18.4397 46.2136L17.7753 45.4663C17.7869 45.4559 17.8027 45.4458 17.8216 45.4388C17.8402 45.4319 17.8564 45.43 17.8675 45.43V46.43ZM17.2953 46.2136C17.462 46.3618 17.6731 46.43 17.8675 46.43V45.43C17.8856 45.43 17.9002 45.433 17.9127 45.4376C17.9256 45.4422 17.9422 45.4507 17.9597 45.4663L17.2953 46.2136ZM14.871 44.037L17.2935 46.212L17.9615 45.4679L15.539 43.2929L14.871 44.037ZM14.6011 43.2503C14.5439 43.555 14.6614 43.8449 14.8671 44.0335L15.5429 43.2964C15.5686 43.32 15.5961 43.3699 15.5839 43.4346L14.6011 43.2503ZM15.7537 35.9891L14.5987 43.2641L15.5863 43.4209L16.7413 36.1459L15.7537 35.9891ZM15.2714 35.7985L15.8939 36.421L16.6011 35.7139L15.9786 35.0914L15.2714 35.7985ZM15.445 36.1783L15.91 35.8558L15.34 35.0341L14.875 35.3566L15.445 36.1783ZM14.14 36.59C14.6057 36.59 15.0557 36.4442 15.442 36.1804L14.878 35.3545C14.6493 35.5107 14.3943 35.59 14.14 35.59V36.59ZM13.5134 36.5048C13.7197 36.5611 13.929 36.59 14.14 36.59V35.59C14.021 35.59 13.9003 35.5738 13.7766 35.5401L13.5134 36.5048ZM12.0297 35.1977C12.2994 35.8334 12.8462 36.3115 13.5058 36.5027L13.7842 35.5422C13.4088 35.4334 13.1006 35.1615 12.9503 34.8072L12.0297 35.1977ZM10.3654 31.3144L12.0304 35.1994L12.9496 34.8055L11.2846 30.9205L10.3654 31.3144ZM5.50253 33.8449L11.015 31.5799L10.635 30.655L5.12247 32.92L5.50253 33.8449Z" fill="#C4C4C9"/>
</svg>
