<svg width="64" height="50" viewBox="0 0 64 50" fill="none" xmlns="http://www.w3.org/2000/svg">
<path fill-rule="evenodd" clip-rule="evenodd" d="M14.3577 24.9997C14.3577 15.0903 22.2727 7.03174 31.9999 7.03174C41.7271 7.03174 49.6422 15.0929 49.6422 24.9997C49.6422 34.9064 41.7297 42.9676 31.9999 42.9676C22.2702 42.9676 14.3577 34.909 14.3577 24.9997ZM15.8132 24.9971C15.8132 34.0889 23.0742 41.4852 31.9999 41.4852V41.4865C40.9257 41.4865 48.1867 34.0901 48.1867 24.9971C48.1867 15.8924 40.9397 8.51152 31.9999 8.51152C23.0602 8.51152 15.8132 15.8924 15.8132 24.9971Z" fill="#C4C4C9"/>
<path d="M31.9999 41.4852H32.4999V40.9852H31.9999V41.4852ZM31.9999 41.4865H31.4999V41.9865H31.9999V41.4865ZM31.9999 6.53174C21.9881 6.53174 13.8577 14.8228 13.8577 24.9997H14.8577C14.8577 15.3579 22.5574 7.53174 31.9999 7.53174V6.53174ZM50.1422 24.9997C50.1422 14.8254 42.0119 6.53174 31.9999 6.53174V7.53174C41.4424 7.53174 49.1422 15.3604 49.1422 24.9997H50.1422ZM31.9999 43.4676C42.0144 43.4676 50.1422 35.1738 50.1422 24.9997H49.1422C49.1422 34.639 41.4449 42.4676 31.9999 42.4676V43.4676ZM13.8577 24.9997C13.8577 35.1764 21.9855 43.4676 31.9999 43.4676V42.4676C22.555 42.4676 14.8577 34.6415 14.8577 24.9997H13.8577ZM31.9999 40.9852C23.359 40.9852 16.3132 33.8214 16.3132 24.9971H15.3132C15.3132 34.3563 22.7894 41.9852 31.9999 41.9852V40.9852ZM32.4999 41.4865V41.4852H31.4999V41.4865H32.4999ZM47.6867 24.9971C47.6867 33.8228 40.6409 40.9865 31.9999 40.9865V41.9865C41.2105 41.9865 48.6867 34.3575 48.6867 24.9971H47.6867ZM31.9999 9.01152C40.6549 9.01152 47.6867 16.1598 47.6867 24.9971H48.6867C48.6867 15.6249 41.2244 8.01152 31.9999 8.01152V9.01152ZM16.3132 24.9971C16.3132 16.1598 23.345 9.01152 31.9999 9.01152V8.01152C22.7755 8.01152 15.3132 15.6249 15.3132 24.9971H16.3132Z" fill="#C4C4C9"/>
<path fill-rule="evenodd" clip-rule="evenodd" d="M19.9402 24.9996C19.9402 18.2163 25.3395 12.7173 31.9999 12.7173C38.6575 12.7244 44.0528 18.2192 44.0597 24.9996C44.0597 31.783 38.6604 37.282 31.9999 37.282C25.3395 37.282 19.9402 31.783 19.9402 24.9996ZM21.3932 24.9996C21.3932 30.9657 26.142 35.8022 31.9999 35.8022C37.855 35.7951 42.5998 30.9628 42.6067 24.9996C42.6067 19.0335 37.8579 14.1971 31.9999 14.1971C26.142 14.1971 21.3932 19.0335 21.3932 24.9996Z" fill="#C4C4C9"/>
<path d="M31.9999 12.7173L32.0005 12.2173H31.9999V12.7173ZM44.0597 24.9996H44.5597V24.9991L44.0597 24.9996ZM31.9999 35.8022V36.3022H32.0005L31.9999 35.8022ZM42.6067 24.9996L43.1067 25.0002V24.9996H42.6067ZM31.9999 12.2173C25.0548 12.2173 19.4402 17.9488 19.4402 24.9996H20.4402C20.4402 18.4838 25.6242 13.2173 31.9999 13.2173V12.2173ZM44.5597 24.9991C44.5525 17.9516 38.9423 12.2247 32.0005 12.2173L31.9994 13.2173C38.3727 13.2241 43.553 18.4868 43.5597 25.0002L44.5597 24.9991ZM31.9999 37.782C38.9451 37.782 44.5597 32.0505 44.5597 24.9996H43.5597C43.5597 31.5155 38.3756 36.782 31.9999 36.782V37.782ZM19.4402 24.9996C19.4402 32.0505 25.0548 37.782 31.9999 37.782V36.782C25.6242 36.782 20.4402 31.5155 20.4402 24.9996H19.4402ZM31.9999 35.3022C26.4267 35.3022 21.8932 30.6982 21.8932 24.9996H20.8932C20.8932 31.2332 25.8573 36.3022 31.9999 36.3022V35.3022ZM42.1067 24.9991C42.1001 30.6952 37.5702 35.2955 31.9993 35.3022L32.0005 36.3022C38.1399 36.2948 43.0995 31.2304 43.1067 25.0002L42.1067 24.9991ZM31.9999 14.6971C37.5732 14.6971 42.1067 19.301 42.1067 24.9996H43.1067C43.1067 18.7661 38.1426 13.6971 31.9999 13.6971V14.6971ZM21.8932 24.9996C21.8932 19.301 26.4267 14.6971 31.9999 14.6971V13.6971C25.8573 13.6971 20.8932 18.7661 20.8932 24.9996H21.8932Z" fill="#C4C4C9"/>
<path fill-rule="evenodd" clip-rule="evenodd" d="M62.9799 9.38184C62.9799 4.83981 59.9555 1.14355 56.2481 1.14355C52.5407 1.14355 49.5164 4.83981 49.5164 9.38184C49.5164 13.6171 52.1539 17.0824 55.5198 17.5316V20.4501C53.7546 20.8052 52.4816 22.3806 52.479 24.2131V45.0212C52.4541 46.4087 53.1666 47.7018 54.3425 48.4029C55.5183 49.1041 56.9742 49.1041 58.1501 48.4029C59.3259 47.7018 60.0384 46.4087 60.0135 45.0212V24.2131C60.0109 22.3806 58.7379 20.8052 56.9727 20.4501V17.5329C60.3412 17.0824 62.9799 13.621 62.9799 9.38184ZM50.9706 9.38184C50.9706 5.65992 53.3372 2.62334 56.2481 2.62334C59.1591 2.62334 61.527 5.65478 61.527 9.38184C61.527 13.1089 59.1579 16.1442 56.2481 16.1442C53.3384 16.1442 50.9706 13.1089 50.9706 9.38184ZM58.5618 45.0212V24.2131C58.5814 23.3579 58.1446 22.559 57.4205 22.1255C56.6964 21.6921 55.7986 21.6921 55.0745 22.1255C54.3504 22.559 53.9136 23.3579 53.9332 24.2131V45.0212C53.9136 45.8764 54.3504 46.6753 55.0745 47.1088C55.7986 47.5422 56.6964 47.5422 57.4205 47.1088C58.1446 46.6753 58.5814 45.8764 58.5618 45.0212Z" fill="#C4C4C9"/>
<path d="M55.5198 17.5316H56.0198V17.0939L55.5859 17.036L55.5198 17.5316ZM55.5198 20.4501L55.6184 20.9403L56.0198 20.8595V20.4501H55.5198ZM52.479 24.2131L51.979 24.2124V24.2131H52.479ZM52.479 45.0212L52.979 45.0302V45.0212H52.479ZM58.1501 48.4029L57.894 47.9735L58.1501 48.4029ZM60.0135 45.0212H59.5134L59.5136 45.0302L60.0135 45.0212ZM60.0135 24.2131H60.5135L60.5135 24.2124L60.0135 24.2131ZM56.9727 20.4501H56.4727V20.8595L56.8741 20.9403L56.9727 20.4501ZM56.9727 17.5329L56.9065 17.0373L56.4727 17.0953V17.5329H56.9727ZM58.5618 24.2131L58.0618 24.2016V24.2131H58.5618ZM58.5618 45.0212H58.0617L58.0619 45.0327L58.5618 45.0212ZM57.4205 22.1255L57.6773 21.6965H57.6773L57.4205 22.1255ZM55.0745 22.1255L54.8177 21.6965H54.8177L55.0745 22.1255ZM53.9332 24.2131H54.4334L54.4331 24.2016L53.9332 24.2131ZM53.9332 45.0212L54.4332 45.0327V45.0212H53.9332ZM55.0745 47.1088L55.3313 46.6797H55.3313L55.0745 47.1088ZM57.4205 47.1088L57.1637 46.6797H57.1637L57.4205 47.1088ZM56.2481 1.64355C59.5899 1.64355 62.4799 5.01702 62.4799 9.38184H63.4799C63.4799 4.6626 60.3212 0.643555 56.2481 0.643555V1.64355ZM50.0164 9.38184C50.0164 5.01702 52.9064 1.64355 56.2481 1.64355V0.643555C52.1751 0.643555 49.0164 4.6626 49.0164 9.38184H50.0164ZM55.5859 17.036C52.5349 16.6288 50.0164 13.4401 50.0164 9.38184H49.0164C49.0164 13.7942 51.7728 17.536 55.4536 18.0272L55.5859 17.036ZM56.0198 20.4501V17.5316H55.0198V20.4501H56.0198ZM52.979 24.2138C52.9812 22.613 54.0925 21.2472 55.6184 20.9403L55.4212 19.9599C53.4168 20.3631 51.9819 22.1483 51.979 24.2124L52.979 24.2138ZM52.979 45.0212V24.2131H51.979V45.0212H52.979ZM54.5985 47.9735C53.5793 47.3657 52.9572 46.2414 52.9789 45.0302L51.9791 45.0122C51.951 46.576 52.7539 48.0378 54.0864 48.8324L54.5985 47.9735ZM57.894 47.9735C56.8759 48.5806 55.6166 48.5806 54.5985 47.9735L54.0864 48.8324C55.42 49.6276 57.0725 49.6276 58.4061 48.8324L57.894 47.9735ZM59.5136 45.0302C59.5353 46.2414 58.9132 47.3657 57.894 47.9735L58.4061 48.8324C59.7386 48.0378 60.5415 46.576 60.5134 45.0122L59.5136 45.0302ZM59.5135 24.2131V45.0212H60.5135V24.2131H59.5135ZM56.8741 20.9403C58.4 21.2472 59.5113 22.613 59.5135 24.2138L60.5135 24.2124C60.5106 22.1483 59.0757 20.3631 57.0714 19.9599L56.8741 20.9403ZM56.4727 17.5329V20.4501H57.4727V17.5329H56.4727ZM62.4799 9.38184C62.4799 13.4435 59.9605 16.6288 56.9065 17.0373L57.039 18.0284C60.7219 17.5359 63.4799 13.7985 63.4799 9.38184H62.4799ZM56.2481 2.12334C52.9527 2.12334 50.4706 5.50628 50.4706 9.38184H51.4706C51.4706 5.81356 53.7216 3.12334 56.2481 3.12334V2.12334ZM62.027 9.38184C62.027 5.50071 59.5432 2.12334 56.2481 2.12334V3.12334C58.775 3.12334 61.027 5.80886 61.027 9.38184H62.027ZM56.2481 16.6442C59.5422 16.6442 62.027 13.2627 62.027 9.38184H61.027C61.027 12.9551 58.7735 15.6442 56.2481 15.6442V16.6442ZM50.4706 9.38184C50.4706 13.2625 52.9539 16.6442 56.2481 16.6442V15.6442C53.7229 15.6442 51.4706 12.9553 51.4706 9.38184H50.4706ZM58.0618 24.2131V45.0212H59.0618V24.2131H58.0618ZM57.1637 22.5545C57.7309 22.894 58.0775 23.5232 58.0619 24.2016L59.0617 24.2245C59.0853 23.1925 58.5584 22.2239 57.6773 21.6965L57.1637 22.5545ZM55.3313 22.5545C55.8973 22.2157 56.5977 22.2157 57.1637 22.5545L57.6773 21.6965C56.7951 21.1684 55.6999 21.1684 54.8177 21.6965L55.3313 22.5545ZM54.4331 24.2016C54.4176 23.5232 54.7642 22.894 55.3313 22.5545L54.8177 21.6965C53.9366 22.2239 53.4097 23.1925 53.4334 24.2245L54.4331 24.2016ZM54.4332 45.0212V24.2131H53.4332V45.0212H54.4332ZM55.3313 46.6797C54.7642 46.3402 54.4176 45.711 54.4331 45.0327L53.4334 45.0097C53.4097 46.0417 53.9366 47.0104 54.8177 47.5378L55.3313 46.6797ZM57.1637 46.6797C56.5977 47.0186 55.8973 47.0186 55.3313 46.6797L54.8177 47.5378C55.6999 48.0659 56.7951 48.0659 57.6773 47.5378L57.1637 46.6797ZM58.0619 45.0327C58.0775 45.711 57.7309 46.3402 57.1637 46.6797L57.6773 47.5378C58.5584 47.0104 59.0853 46.0417 59.0617 45.0098L58.0619 45.0327Z" fill="#C4C4C9"/>
<path fill-rule="evenodd" clip-rule="evenodd" d="M10.9843 1.88415C10.985 1.47546 11.3101 1.14432 11.7114 1.14362C11.905 1.14259 12.091 1.22012 12.2284 1.35907C12.3658 1.49802 12.4432 1.68696 12.4435 1.88415V9.23046C12.4415 11.6532 10.5139 13.6169 8.13504 13.6198H7.45959V20.4501C9.22472 20.8052 10.4978 22.3807 10.5004 24.2131V45.0213C10.5253 46.4087 9.81275 47.7018 8.63691 48.403C7.46107 49.1042 6.00515 49.1042 4.82931 48.403C3.65347 47.7018 2.94094 46.4087 2.96585 45.0213V24.2131C2.96793 22.3805 4.24123 20.8048 6.00663 20.4501V13.6198H5.33118C2.95191 13.6169 1.02364 11.6536 1.02016 9.23046V1.88415C1.00905 1.61246 1.14504 1.35642 1.37439 1.21721C1.60374 1.07799 1.88956 1.07799 2.11891 1.21721C2.34826 1.35642 2.48424 1.61246 2.47313 1.88415V9.23046C2.47522 10.837 3.75379 12.1386 5.33118 12.14H6.00663V1.88415C5.99551 1.61246 6.1315 1.35642 6.36085 1.21721C6.5902 1.07799 6.87602 1.07799 7.10537 1.21721C7.33472 1.35642 7.47071 1.61246 7.45959 1.88415V12.14H8.13504C9.70927 12.1343 10.9829 10.8338 10.9843 9.23046V1.88415ZM9.04614 45.0213V24.2131C9.04614 22.9117 8.01028 21.8568 6.73248 21.8568C5.45468 21.8568 4.41882 22.9117 4.41882 24.2131V45.0213C4.41882 46.3226 5.45468 47.3776 6.73248 47.3776C8.01028 47.3776 9.04614 46.3226 9.04614 45.0213Z" fill="#C4C4C9"/>
<path d="M11.7114 1.14362L11.7123 1.64362L11.714 1.64361L11.7114 1.14362ZM10.9843 1.88415L10.4843 1.8833V1.88415H10.9843ZM12.2284 1.35907L12.584 1.00753V1.00753L12.2284 1.35907ZM12.4435 1.88415H12.9435L12.9435 1.88331L12.4435 1.88415ZM12.4435 9.23046L12.9435 9.23089V9.23046H12.4435ZM8.13504 13.6198V14.1198H8.13564L8.13504 13.6198ZM7.45959 13.6198V13.1198H6.95959V13.6198H7.45959ZM7.45959 20.4501H6.95959V20.8596L7.36098 20.9403L7.45959 20.4501ZM10.5004 24.2131H11.0004L11.0004 24.2124L10.5004 24.2131ZM10.5004 45.0213H10.0003L10.0004 45.0302L10.5004 45.0213ZM2.96585 45.0213L3.46585 45.0302V45.0213H2.96585ZM2.96585 24.2131L2.46585 24.2126V24.2131H2.96585ZM6.00663 20.4501L6.1051 20.9403L6.50663 20.8597V20.4501H6.00663ZM6.00663 13.6198H6.50663V13.1198H6.00663V13.6198ZM5.33118 13.6198L5.33059 14.1198H5.33118V13.6198ZM1.02016 9.23046H0.520163L0.520164 9.23118L1.02016 9.23046ZM1.02016 1.88415H1.52016V1.87393L1.51975 1.86372L1.02016 1.88415ZM1.37439 1.21721L1.11494 0.789786H1.11494L1.37439 1.21721ZM2.11891 1.21721L2.37835 0.789786V0.789786L2.11891 1.21721ZM2.47313 1.88415L1.97355 1.86372L1.97313 1.87393V1.88415H2.47313ZM2.47313 9.23046H1.97313L1.97313 9.23111L2.47313 9.23046ZM5.33118 12.14L5.33073 12.64H5.33118V12.14ZM6.00663 12.14V12.64H6.50663V12.14H6.00663ZM6.00663 1.88415H6.50663V1.87393L6.50621 1.86372L6.00663 1.88415ZM6.36085 1.21721L6.1014 0.789786L6.36085 1.21721ZM7.10537 1.21721L7.36482 0.789786L7.10537 1.21721ZM7.45959 1.88415L6.96001 1.86372L6.95959 1.87393V1.88415H7.45959ZM7.45959 12.14H6.95959V12.64H7.45959V12.14ZM8.13504 12.14V12.64L8.13684 12.64L8.13504 12.14ZM10.9843 9.23046L11.4843 9.23089V9.23046H10.9843ZM9.04614 45.0213H8.54614H9.04614ZM11.7105 0.643616C11.0252 0.644822 10.4854 1.20776 10.4843 1.8833L11.4843 1.885C11.4845 1.74316 11.595 1.64382 11.7123 1.64361L11.7105 0.643616ZM12.584 1.00753C12.353 0.773922 12.0383 0.64188 11.7087 0.643622L11.714 1.64361C11.7717 1.6433 11.8291 1.66631 11.8729 1.71061L12.584 1.00753ZM12.9435 1.88331C12.943 1.55614 12.8146 1.24083 12.584 1.00753L11.8729 1.71061C11.917 1.75521 11.9434 1.81778 11.9435 1.88499L12.9435 1.88331ZM12.9435 9.23046V1.88415H11.9435V9.23046H12.9435ZM8.13564 14.1198C10.7988 14.1166 12.9412 11.9208 12.9435 9.23089L11.9435 9.23003C11.9417 11.3857 10.229 13.1173 8.13445 13.1198L8.13564 14.1198ZM7.45959 14.1198H8.13504V13.1198H7.45959V14.1198ZM7.95959 20.4501V13.6198H6.95959V20.4501H7.95959ZM11.0004 24.2124C10.9975 22.1484 9.56257 20.3632 7.55821 19.96L7.36098 20.9403C8.88687 21.2473 9.99813 22.613 10.0004 24.2138L11.0004 24.2124ZM11.0004 45.0213V24.2131H10.0004V45.0213H11.0004ZM8.89299 48.8324C10.2254 48.0379 11.0284 46.576 11.0003 45.0123L10.0004 45.0302C10.0222 46.2415 9.40006 47.3658 8.38083 47.9736L8.89299 48.8324ZM4.57323 48.8324C5.90683 49.6277 7.55939 49.6277 8.89299 48.8324L8.38083 47.9736C7.36275 48.5806 6.10347 48.5806 5.08539 47.9736L4.57323 48.8324ZM2.46594 45.0123C2.43785 46.576 3.24078 48.0379 4.57323 48.8324L5.08539 47.9736C4.06616 47.3658 3.44402 46.2415 3.46577 45.0302L2.46594 45.0123ZM2.46585 24.2131V45.0213H3.46585V24.2131H2.46585ZM5.90815 19.9599C3.9034 20.3627 2.46819 22.1482 2.46586 24.2126L3.46585 24.2137C3.46766 22.6128 4.57906 21.2469 6.1051 20.9403L5.90815 19.9599ZM5.50663 13.6198V20.4501H6.50663V13.6198H5.50663ZM5.33118 14.1198H6.00663V13.1198H5.33118V14.1198ZM0.520164 9.23118C0.524019 11.9214 2.66714 14.1166 5.33059 14.1198L5.33177 13.1198C3.23669 13.1173 1.52325 11.3859 1.52016 9.22974L0.520164 9.23118ZM0.520164 1.88415V9.23046H1.52016V1.88415H0.520164ZM1.11494 0.789786C0.727387 1.02503 0.502155 1.4541 0.520582 1.90458L1.51975 1.86372C1.51595 1.77082 1.56269 1.68781 1.63383 1.64463L1.11494 0.789786ZM2.37835 0.789786C1.98958 0.553795 1.50372 0.553795 1.11494 0.789786L1.63383 1.64463C1.70376 1.60218 1.78954 1.60218 1.85946 1.64463L2.37835 0.789786ZM2.97271 1.90458C2.99114 1.4541 2.76591 1.02503 2.37835 0.789786L1.85946 1.64463C1.93061 1.68781 1.97735 1.77082 1.97355 1.86372L2.97271 1.90458ZM2.97313 9.23046V1.88415H1.97313V9.23046H2.97313ZM5.33163 11.64C4.03851 11.6388 2.97487 10.5692 2.97313 9.22981L1.97313 9.23111C1.97556 11.1047 3.46907 12.6383 5.33073 12.64L5.33163 11.64ZM6.00663 11.64H5.33118V12.64H6.00663V11.64ZM5.50663 1.88415V12.14H6.50663V1.88415H5.50663ZM6.1014 0.789786C5.71385 1.02503 5.48862 1.4541 5.50704 1.90458L6.50621 1.86372C6.50241 1.77082 6.54915 1.68781 6.6203 1.64463L6.1014 0.789786ZM7.36482 0.789786C6.97604 0.553795 6.49018 0.553795 6.1014 0.789786L6.6203 1.64463C6.69022 1.60218 6.776 1.60218 6.84593 1.64463L7.36482 0.789786ZM7.95918 1.90458C7.9776 1.4541 7.75237 1.02503 7.36482 0.789786L6.84593 1.64463C6.91707 1.68781 6.96381 1.77082 6.96001 1.86372L7.95918 1.90458ZM7.95959 12.14V1.88415H6.95959V12.14H7.95959ZM8.13504 11.64H7.45959V12.64H8.13504V11.64ZM10.4843 9.23003C10.4831 10.5667 9.42368 11.6353 8.13325 11.64L8.13684 12.64C9.99487 12.6333 11.4827 11.1009 11.4843 9.23089L10.4843 9.23003ZM10.4843 1.88415V9.23046H11.4843V1.88415H10.4843ZM8.54614 24.2131V45.0213H9.54614V24.2131H8.54614ZM6.73248 22.3568C7.72555 22.3568 8.54614 23.1792 8.54614 24.2131H9.54614C9.54614 22.6443 8.295 21.3568 6.73248 21.3568V22.3568ZM4.91882 24.2131C4.91882 23.1792 5.73941 22.3568 6.73248 22.3568V21.3568C5.16996 21.3568 3.91882 22.6443 3.91882 24.2131H4.91882ZM4.91882 45.0213V24.2131H3.91882V45.0213H4.91882ZM6.73248 46.8776C5.73941 46.8776 4.91882 46.0552 4.91882 45.0213H3.91882C3.91882 46.5901 5.16996 47.8776 6.73248 47.8776V46.8776ZM8.54614 45.0213C8.54614 46.0552 7.72556 46.8776 6.73248 46.8776V47.8776C8.295 47.8776 9.54614 46.5901 9.54614 45.0213H8.54614Z" fill="#C4C4C9"/>
</svg>
