<svg width="28" height="48" viewBox="0 0 28 48" fill="none" xmlns="http://www.w3.org/2000/svg">
<path fill-rule="evenodd" clip-rule="evenodd" d="M4.66071 0H23.1316C25.7013 0 27.7924 1.51425 27.7924 3.375V44.25C27.7924 46.1107 25.7013 47.625 23.1316 47.625H4.66071C2.09111 47.625 0 46.1107 0 44.25V3.375C0 1.51425 2.09111 0 4.66071 0ZM23.1316 45.375C23.9882 45.375 24.6852 44.8703 24.6852 44.25V3.375C24.6852 2.75475 23.9882 2.25 23.1316 2.25H4.66071C3.80418 2.25 3.10714 2.75475 3.10714 3.375V44.25C3.10714 44.8703 3.80418 45.375 4.66071 45.375H23.1316Z" fill="#C4C4C9"/>
<path fill-rule="evenodd" clip-rule="evenodd" d="M8 9.5C8 6.46749 10.4675 4 13.5 4C16.5332 4 19 6.46749 19 9.5C19 12.5325 16.5332 15 13.5 15C10.4675 15 8 12.5332 8 9.5ZM10.1759 9.50073C10.1759 11.3336 11.6672 12.8248 13.5 12.8248C15.3328 12.8248 16.8241 11.3328 16.8241 9.50073C16.8241 7.66788 15.3328 6.17665 13.5 6.17665C11.6672 6.17665 10.1759 7.66788 10.1759 9.50073Z" fill="#C4C4C9"/>
<path fill-rule="evenodd" clip-rule="evenodd" d="M8 23.5C8 20.4675 10.4675 18 13.5 18C16.5332 18 19 20.4668 19 23.5C19 26.5332 16.5332 29 13.5 29C10.4675 29 8 26.5325 8 23.5ZM10.1759 23.5C10.1759 25.3328 11.6672 26.8241 13.5 26.8241C15.3328 26.8241 16.8241 25.3328 16.8241 23.5C16.8241 21.6672 15.3328 20.1759 13.5 20.1759C11.6672 20.1759 10.1759 21.6672 10.1759 23.5Z" fill="#C4C4C9"/>
<path fill-rule="evenodd" clip-rule="evenodd" d="M8 38.4996C8 35.4666 10.4675 33 13.5 33C16.5332 33 19 35.4666 19 38.4996C19 41.5327 16.5332 44 13.5 44C10.4675 44 8 41.5327 8 38.4996ZM10.1759 38.4996C10.1759 40.3324 11.6672 41.8242 13.5 41.8242C15.3328 41.8242 16.8241 40.3324 16.8241 38.4996C16.8241 36.6669 15.3328 35.1758 13.5 35.1758C11.6672 35.1758 10.1759 36.6669 10.1759 38.4996Z" fill="#C4C4C9"/>
</svg>
